<svg width="218" height="135" fill="none" xmlns="http://www.w3.org/2000/svg"><g filter="url(#filter0_d)" fill="#48E445"><path d="M4 0h210v82H4V0zm86 126c3-2-21.5-44-21.5-44H4s83 46 86 44z"/></g><path d="M21.023 52V32.094h5.88c1.759 0 3.317.392 4.675 1.175 1.367.784 2.425 1.896 3.172 3.337.747 1.44 1.121 3.09 1.121 4.949v.998c0 1.887-.378 3.545-1.135 4.976a7.866 7.866 0 01-3.213 3.309C30.138 51.613 28.547 52 26.752 52h-5.729zm3.46-17.117v14.355h2.255c1.814 0 3.204-.565 4.17-1.695.976-1.14 1.472-2.77 1.49-4.895v-1.107c0-2.16-.469-3.81-1.408-4.95-.939-1.139-2.301-1.708-4.088-1.708h-2.42zM42.528 52h-3.322V37.207h3.322V52zm-3.527-18.635c0-.51.16-.934.478-1.271.329-.338.793-.506 1.395-.506s1.066.168 1.395.506c.328.337.492.76.492 1.271 0 .502-.164.92-.492 1.258-.329.328-.793.492-1.395.492s-1.066-.164-1.395-.492c-.319-.337-.478-.756-.478-1.258zm6.535 11.13c0-2.28.529-4.107 1.586-5.483 1.057-1.386 2.475-2.078 4.252-2.078 1.568 0 2.835.547 3.8 1.64V31h3.323v21H55.49l-.164-1.531c-.993 1.203-2.32 1.804-3.978 1.804-1.732 0-3.136-.697-4.211-2.091-1.067-1.395-1.6-3.29-1.6-5.688zm3.322.286c0 1.504.288 2.68.862 3.528.583.838 1.408 1.257 2.474 1.257 1.358 0 2.352-.606 2.98-1.818v-6.316c-.61-1.185-1.594-1.778-2.952-1.778-1.076 0-1.905.429-2.489 1.285-.583.848-.875 2.129-.875 3.842zm25.252 2.461l3.008-10.035h3.541L74.78 54.242c-.902 2.489-2.433 3.733-4.594 3.733a5.95 5.95 0 01-1.6-.247v-2.57l.63.041c.838 0 1.467-.155 1.886-.465.429-.3.766-.81 1.012-1.53l.479-1.272-5.196-14.725h3.583l3.13 10.035zm7.63-2.775c0-1.45.286-2.753.86-3.91.575-1.167 1.381-2.06 2.42-2.68 1.04-.629 2.234-.943 3.582-.943 1.997 0 3.614.642 4.854 1.927 1.249 1.286 1.923 2.99 2.024 5.114l.013.779c0 1.458-.282 2.762-.847 3.91-.556 1.148-1.359 2.037-2.407 2.666-1.039.629-2.242.943-3.61.943-2.086 0-3.759-.692-5.017-2.078-1.248-1.394-1.873-3.249-1.873-5.564v-.164zm3.322.287c0 1.522.314 2.716.943 3.582.629.857 1.504 1.285 2.625 1.285s1.991-.437 2.611-1.312c.63-.875.944-2.156.944-3.842 0-1.495-.324-2.68-.971-3.555-.638-.875-1.509-1.312-2.612-1.312-1.084 0-1.945.433-2.584 1.298-.638.857-.957 2.142-.957 3.856zm22.203 5.797c-.976 1.148-2.361 1.722-4.157 1.722-1.604 0-2.821-.469-3.65-1.408-.82-.939-1.23-2.297-1.23-4.074v-9.584h3.322v9.543c0 1.878.779 2.816 2.338 2.816 1.613 0 2.702-.578 3.267-1.736V37.207h3.323V52h-3.131l-.082-1.45zm18.375-4.895l-1.477 1.518V52h-3.322V31h3.322v12.113l1.039-1.298 4.088-4.608h3.992l-5.496 6.166L133.871 52h-3.842l-4.388-6.344zm12.906-8.449l.096 1.709c1.093-1.322 2.529-1.982 4.306-1.982 3.081 0 4.649 1.763 4.703 5.29V52h-3.322v-9.584c0-.939-.205-1.631-.615-2.078-.401-.456-1.062-.684-1.983-.684-1.339 0-2.337.606-2.994 1.819V52h-3.322V37.207h3.131zm11.881 7.26c0-1.45.287-2.753.861-3.91.574-1.167 1.381-2.06 2.42-2.68 1.039-.629 2.233-.943 3.582-.943 1.996 0 3.614.642 4.854 1.927 1.248 1.286 1.923 2.99 2.023 5.114l.014.779c0 1.458-.283 2.762-.848 3.91-.556 1.148-1.358 2.037-2.406 2.666-1.039.629-2.242.943-3.61.943-2.087 0-3.759-.692-5.017-2.078-1.249-1.394-1.873-3.249-1.873-5.564v-.164zm3.322.287c0 1.522.314 2.716.943 3.582.629.857 1.504 1.285 2.625 1.285s1.992-.437 2.612-1.312c.629-.875.943-2.156.943-3.842 0-1.495-.324-2.68-.971-3.555-.638-.875-1.508-1.312-2.611-1.312-1.085 0-1.946.433-2.584 1.298-.638.857-.957 2.142-.957 3.856zm26.236 2.666l2.352-10.213h3.24L181.545 52h-2.734l-3.172-10.158L172.521 52h-2.734l-4.047-14.793h3.24l2.393 10.103 3.035-10.103h2.502l3.076 10.213zm10.897-1.272c0-1.212.15-2.178.451-2.898.301-.72.893-1.508 1.777-2.365.894-.866 1.459-1.481 1.696-1.846a3.233 3.233 0 00.547-1.805c0-.856-.215-1.508-.643-1.955-.419-.455-1.039-.683-1.859-.683-.784 0-1.418.223-1.901.67-.474.437-.711 1.034-.711 1.79h-3.322c.018-1.613.565-2.889 1.641-3.828 1.084-.938 2.515-1.408 4.293-1.408 1.832 0 3.258.465 4.279 1.395 1.03.93 1.545 2.228 1.545 3.896 0 1.486-.693 2.949-2.078 4.389l-1.682 1.654c-.602.684-.911 1.682-.93 2.994h-3.103zm-.233 4.252c0-.537.169-.97.506-1.298.337-.338.793-.506 1.367-.506.584 0 1.044.173 1.381.52.338.337.506.765.506 1.284 0 .502-.164.921-.492 1.258-.328.337-.793.506-1.395.506-.601 0-1.066-.169-1.394-.506-.319-.337-.479-.756-.479-1.258z" fill="#fff"/><defs><filter id="filter0_d" x="0" y="0" width="218" height="134.063" filterUnits="userSpaceOnUse" color-interpolation-filters="sRGB"><feFlood flood-opacity="0" result="BackgroundImageFix"/><feColorMatrix in="SourceAlpha" values="0 0 0 0 0 0 0 0 0 0 0 0 0 0 0 0 0 0 127 0"/><feOffset dy="4"/><feGaussianBlur stdDeviation="2"/><feColorMatrix values="0 0 0 0 0 0 0 0 0 0 0 0 0 0 0 0 0 0 0.25 0"/><feBlend in2="BackgroundImageFix" result="effect1_dropShadow"/><feBlend in="SourceGraphic" in2="effect1_dropShadow" result="shape"/></filter></defs></svg>