<svg width="512" height="512" viewBox="0 0 512 512" fill="none" xmlns="http://www.w3.org/2000/svg">
<g clip-path="url(#clip0)">
<path d="M266.199 300.876C285.071 318.573 320.689 338.116 363.059 338.116C428.707 338.116 476.663 289.451 476.666 289.448V98.715C476.666 94.574 472.041 92.116 468.614 94.441C452.329 105.486 412.765 128.226 363.06 128.226C341.509 128.226 321.865 123.951 305.198 118.208L254.307 291.503L266.199 300.876Z" fill="#22AAA1"/>
<path d="M363.06 329.116C320.69 329.116 285.694 312.594 266.2 300.876L256 297.891L249.453 308.029C249.453 308.029 297.411 347.697 363.06 347.697C420.793 347.697 464.844 317.019 474.628 309.62C475.917 308.646 476.667 307.126 476.667 305.51V289.448C476.666 289.448 428.709 329.116 363.06 329.116V329.116Z" fill="#128880"/>
<path d="M249.453 273.149V308.029L288.451 291.371C284.538 281.195 268.103 270.053 249.453 273.149Z" fill="#12938A"/>
<path d="M305.197 284.219C305.197 284.219 283.558 266.32 249.453 254.569V273.15C265.554 278.698 278.872 285.614 288.451 291.372L305.197 284.219Z" fill="#0D827A"/>
<path d="M191.591 237.469C257.24 237.469 305.198 265.638 305.198 265.638V61.98C305.198 61.98 257.241 22.312 191.591 22.312C125.942 22.312 77.984 61.98 77.984 61.98L68.984 157.132L77.984 265.638C77.987 265.636 125.943 237.469 191.591 237.469V237.469Z" fill="#22C5BA"/>
<path d="M77.984 265.638L68.984 272.97L77.984 284.219C77.984 284.219 125.942 244.551 191.591 244.551C257.24 244.551 305.198 284.219 305.198 284.219V265.638C305.198 265.638 257.241 225.97 191.591 225.97C125.942 225.97 77.984 265.638 77.984 265.638V265.638Z" fill="#22AAA1"/>
<path d="M45.656 502.419H67.661C73.362 502.419 77.984 494.655 77.984 483.096V21.325C77.984 9.548 68.437 0 56.659 0C44.881 0 35.334 9.548 35.334 21.325V483.097C35.334 497.548 39.955 502.419 45.656 502.419V502.419Z" fill="#9D7D52"/>
<path d="M67.661 493.419H45.656C39.955 493.419 35.333 488.797 35.333 483.096V501.677C35.333 507.378 39.955 512 45.656 512H67.661C73.362 512 77.984 507.378 77.984 501.677V483.096C77.984 488.798 73.363 493.419 67.661 493.419Z" fill="#8A6D49"/>
</g>
<defs>
<clipPath id="clip0">
<rect width="512" height="512" fill="white"/>
</clipPath>
</defs>
</svg>
