<svg width="41" height="43" fill="none" xmlns="http://www.w3.org/2000/svg"><g clip-path="url(#clip0)" filter="url(#filter0_d)"><path d="M28.19 30.753H12.82v-1.28a7.812 7.812 0 00-2.345-5.49c-5.457-5.532-5.404-14.438.118-19.906 5.522-5.467 14.429-5.431 19.907.08 5.477 5.513 5.458 14.42-.043 19.907a7.591 7.591 0 00-2.266 5.408v1.281z" fill="#FFCB5A"/><path d="M14.101 33.315H26.91a1.28 1.28 0 110 2.562H14.1a1.28 1.28 0 010-2.562zm2.562 5.123h7.685a1.28 1.28 0 110 2.562h-7.685a1.28 1.28 0 010-2.562z" fill="#62808C"/><path d="M11.54 12.821h2.56v2.562h-2.56V12.82zm5.123 2.562h2.562v15.37h2.561v-15.37h2.562V12.82h-7.685v2.562zm10.247-2.562h2.562v2.562H26.91V12.82z" fill="#fff"/></g><defs><clipPath id="clip0"><path fill="#fff" d="M0 0h41v41H0z"/></clipPath><filter id="filter0_d" x="0" y="0" width="43" height="43" filterUnits="userSpaceOnUse" color-interpolation-filters="sRGB"><feFlood flood-opacity="0" result="BackgroundImageFix"/><feColorMatrix in="SourceAlpha" values="0 0 0 0 0 0 0 0 0 0 0 0 0 0 0 0 0 0 127 0"/><feOffset dx="2" dy="2"/><feColorMatrix values="0 0 0 0 0 0 0 0 0 0 0 0 0 0 0 0 0 0 0.25 0"/><feBlend in2="BackgroundImageFix" result="effect1_dropShadow"/><feBlend in="SourceGraphic" in2="effect1_dropShadow" result="shape"/></filter></defs></svg>