<svg width="1008" height="508" fill="none" xmlns="http://www.w3.org/2000/svg"><g filter="url(#filter0_dd)"><rect x="4" width="1000" height="500" rx="32" fill="#0A81D1"/><path d="M389 262.5l-6.5 17.5 4-18.5 2.5 1z" stroke="#000"/><g filter="url(#filter1_d)"><rect x="477" y="250" width="310" height="74" rx="8" fill="#FFB800"/><path d="M584.719 289.984V298h-4.688v-22.75h8.875c1.709 0 3.209.312 4.5.938 1.302.624 2.302 1.515 3 2.671.698 1.146 1.047 2.453 1.047 3.922 0 2.229-.765 3.99-2.297 5.281-1.521 1.282-3.63 1.922-6.328 1.922h-4.109zm0-3.796h4.187c1.24 0 2.183-.292 2.828-.876.657-.583.985-1.416.985-2.5 0-1.114-.328-2.015-.985-2.703-.656-.687-1.562-1.041-2.718-1.062h-4.297v7.141zm14.75 3.203c0-1.677.323-3.172.969-4.485.645-1.312 1.572-2.328 2.781-3.047 1.219-.718 2.63-1.078 4.234-1.078 2.281 0 4.141.698 5.578 2.094 1.448 1.396 2.255 3.292 2.422 5.687l.031 1.157c0 2.593-.724 4.677-2.172 6.25-1.447 1.562-3.39 2.343-5.828 2.343-2.437 0-4.385-.781-5.843-2.343-1.448-1.563-2.172-3.688-2.172-6.375v-.203zm4.515.328c0 1.604.302 2.833.907 3.687.604.844 1.468 1.266 2.593 1.266 1.094 0 1.948-.417 2.563-1.25.614-.844.922-2.188.922-4.031 0-1.573-.308-2.792-.922-3.657-.615-.864-1.479-1.296-2.594-1.296-1.104 0-1.958.432-2.562 1.296-.605.855-.907 2.183-.907 3.985zm21.313 4.953c.833 0 1.51-.229 2.031-.688.521-.458.792-1.067.813-1.828h4.234a5.83 5.83 0 01-.937 3.156c-.615.948-1.459 1.688-2.532 2.219-1.062.521-2.239.781-3.531.781-2.417 0-4.323-.765-5.719-2.296-1.396-1.542-2.094-3.667-2.094-6.375v-.297c0-2.604.693-4.683 2.079-6.235 1.385-1.552 3.286-2.328 5.703-2.328 2.114 0 3.807.604 5.078 1.813 1.281 1.198 1.932 2.797 1.953 4.797h-4.234c-.021-.875-.292-1.584-.813-2.125-.521-.552-1.208-.828-2.062-.828-1.052 0-1.849.385-2.391 1.156-.531.76-.797 2-.797 3.718v.469c0 1.74.266 2.99.797 3.75.531.761 1.339 1.141 2.422 1.141zm16.687 0c.834 0 1.511-.229 2.032-.688.52-.458.791-1.067.812-1.828h4.234a5.822 5.822 0 01-.937 3.156c-.615.948-1.458 1.688-2.531 2.219-1.063.521-2.24.781-3.532.781-2.416 0-4.322-.765-5.718-2.296-1.396-1.542-2.094-3.667-2.094-6.375v-.297c0-2.604.693-4.683 2.078-6.235 1.386-1.552 3.287-2.328 5.703-2.328 2.115 0 3.808.604 5.078 1.813 1.282 1.198 1.933 2.797 1.953 4.797h-4.234c-.021-.875-.292-1.584-.812-2.125-.521-.552-1.209-.828-2.063-.828-1.052 0-1.849.385-2.391 1.156-.531.76-.796 2-.796 3.718v.469c0 1.74.265 2.99.796 3.75.532.761 1.339 1.141 2.422 1.141zm19.844-13.578h4.516V298h-4.516v-10.438L656.172 298h-4.531v-16.906h4.531v10.422l5.656-10.422zm22.063 0V298h-4.5v-5.844h-2.86l-3.25 5.844h-4.578l3.688-6.609c-1.011-.469-1.792-1.105-2.344-1.907-.542-.802-.813-1.713-.813-2.734 0-1.635.631-2.974 1.891-4.016 1.271-1.052 2.969-1.599 5.094-1.64h7.672zM676.297 289h3.094v-4.281h-2.938c-.802 0-1.453.213-1.953.64-.5.417-.75.927-.75 1.532 0 .604.24 1.104.719 1.5.479.395 1.088.599 1.828.609z" fill="#fff"/></g><g filter="url(#filter2_d)"><rect x="477" y="344" width="310" height="74" rx="8" fill="#FFB800"/><path d="M585.453 382.703h-2.703V392h-4.688v-22.75h4.688v9.109h2.141l5.562-9.109h5.719l-7.016 10.766 7.75 11.984h-5.594l-5.859-9.297zM608.219 392c-.209-.406-.36-.911-.453-1.516-1.094 1.219-2.516 1.828-4.266 1.828-1.656 0-3.031-.479-4.125-1.437-1.083-.958-1.625-2.167-1.625-3.625 0-1.792.661-3.167 1.984-4.125 1.334-.958 3.256-1.443 5.766-1.453h2.078v-.969c0-.781-.203-1.406-.609-1.875-.396-.469-1.026-.703-1.891-.703-.76 0-1.359.182-1.797.547-.427.364-.64.864-.64 1.5h-4.516c0-.979.302-1.886.906-2.719.604-.833 1.459-1.484 2.563-1.953 1.104-.479 2.344-.719 3.718-.719 2.084 0 3.735.526 4.954 1.578 1.229 1.042 1.843 2.511 1.843 4.407v7.328c.011 1.604.235 2.817.672 3.64V392h-4.562zm-3.735-3.141a3.94 3.94 0 001.844-.437c.563-.302.979-.703 1.25-1.203v-2.907h-1.687c-2.261 0-3.464.782-3.61 2.344l-.015.266c0 .562.198 1.026.593 1.39.396.365.938.547 1.625.547zm25.75 3.141h-4.531v-6.5h-5.609v6.5h-4.516v-16.906h4.516v6.781h5.609v-6.781h4.531V392zm13.297 0c-.208-.406-.359-.911-.453-1.516-1.094 1.219-2.516 1.828-4.266 1.828-1.656 0-3.031-.479-4.124-1.437-1.084-.958-1.626-2.167-1.626-3.625 0-1.792.662-3.167 1.985-4.125 1.333-.958 3.255-1.443 5.765-1.453h2.079v-.969c0-.781-.203-1.406-.61-1.875-.396-.469-1.026-.703-1.89-.703-.761 0-1.36.182-1.797.547-.427.364-.641.864-.641 1.5h-4.515c0-.979.302-1.886.906-2.719.604-.833 1.458-1.484 2.562-1.953 1.104-.479 2.344-.719 3.719-.719 2.083 0 3.734.526 4.953 1.578 1.229 1.042 1.844 2.511 1.844 4.407v7.328c.01 1.604.234 2.817.672 3.64V392h-4.563zm-3.734-3.141c.667 0 1.281-.145 1.844-.437.562-.302.979-.703 1.25-1.203v-2.907h-1.688c-2.26 0-3.463.782-3.609 2.344l-.016.266c0 .562.198 1.026.594 1.39.396.365.937.547 1.625.547zm11.328-.5c1.021-1.083 1.714-2.156 2.078-3.218.365-1.063.568-2.568.609-4.516l.126-5.531h12.437v13.265h2.437v8.719h-4.515V392h-10.016v5.078h-4.609v-8.719h1.453zm5.328 0h5.422v-9.531h-3.516l-.031 2.031c-.094 3.105-.719 5.605-1.875 7.5zM680.906 392c-.208-.406-.359-.911-.453-1.516-1.094 1.219-2.515 1.828-4.265 1.828-1.657 0-3.032-.479-4.126-1.437-1.083-.958-1.624-2.167-1.624-3.625 0-1.792.661-3.167 1.984-4.125 1.333-.958 3.255-1.443 5.766-1.453h2.078v-.969c0-.781-.204-1.406-.61-1.875-.396-.469-1.026-.703-1.89-.703-.761 0-1.36.182-1.797.547-.427.364-.641.864-.641 1.5h-4.516c0-.979.303-1.886.907-2.719.604-.833 1.458-1.484 2.562-1.953 1.104-.479 2.344-.719 3.719-.719 2.083 0 3.734.526 4.953 1.578 1.229 1.042 1.844 2.511 1.844 4.407v7.328c.01 1.604.234 2.817.672 3.64V392h-4.563zm-3.734-3.141c.667 0 1.281-.145 1.844-.437.562-.302.979-.703 1.25-1.203v-2.907h-1.688c-2.26 0-3.463.782-3.609 2.344l-.016.266c0 .562.198 1.026.594 1.39.396.365.937.547 1.625.547z" fill="#fff"/></g><g filter="url(#filter3_d)"><rect x="147" y="250" width="310" height="74" rx="8" fill="#48E445"/><path d="M284.891 290.422c-.177 2.448-1.084 4.375-2.719 5.781-1.625 1.406-3.771 2.109-6.438 2.109-2.916 0-5.213-.979-6.89-2.937-1.667-1.969-2.5-4.667-2.5-8.094v-1.39c0-2.188.385-4.115 1.156-5.782.771-1.666 1.87-2.942 3.297-3.828 1.437-.896 3.104-1.343 5-1.343 2.625 0 4.739.703 6.344 2.109 1.604 1.406 2.531 3.38 2.781 5.922h-4.688c-.114-1.469-.526-2.531-1.234-3.188-.698-.666-1.766-1-3.203-1-1.563 0-2.735.563-3.516 1.688-.771 1.114-1.166 2.849-1.187 5.203v1.719c0 2.458.37 4.255 1.109 5.39.75 1.136 1.927 1.703 3.531 1.703 1.448 0 2.526-.328 3.235-.984.719-.667 1.13-1.693 1.234-3.078h4.688zm7.75-15.172v18.984h6.312V275.25h4.703v18.984h6.25V275.25h4.688V298h-26.656v-22.75h4.703zm39.14 18.062h-8.219L322 298h-4.984l8.468-22.75h4.344l8.516 22.75h-4.985l-1.578-4.688zm-6.953-3.796h5.688l-2.86-8.516-2.828 8.516z" fill="#fff"/></g><g filter="url(#filter4_d)"><rect x="147" y="344" width="310" height="74" rx="8" fill="#FFB800"/><path d="M265.453 382.703h-2.703V392h-4.688v-22.75h4.688v9.109h2.141l5.562-9.109h5.719l-7.016 10.766 7.75 11.984h-5.594l-5.859-9.297zm23.156-7.609h4.516V392h-4.516v-10.438L282.953 392h-4.531v-16.906h4.531v10.422l5.656-10.422zm22 3.625h-5.421V392h-4.532v-13.281h-5.328v-3.625h15.281v3.625zM322.438 392c-.209-.406-.36-.911-.454-1.516-1.093 1.219-2.515 1.828-4.265 1.828-1.657 0-3.031-.479-4.125-1.437-1.084-.958-1.625-2.167-1.625-3.625 0-1.792.661-3.167 1.984-4.125 1.333-.958 3.255-1.443 5.766-1.453h2.078v-.969c0-.781-.203-1.406-.609-1.875-.396-.469-1.027-.703-1.891-.703-.761 0-1.359.182-1.797.547-.427.364-.641.864-.641 1.5h-4.515c0-.979.302-1.886.906-2.719.604-.833 1.458-1.484 2.562-1.953 1.105-.479 2.344-.719 3.719-.719 2.084 0 3.735.526 4.953 1.578 1.23 1.042 1.844 2.511 1.844 4.407v7.328c.011 1.604.234 2.817.672 3.64V392h-4.562zm-3.735-3.141c.667 0 1.281-.145 1.844-.437.562-.302.979-.703 1.25-1.203v-2.907h-1.688c-2.26 0-3.463.782-3.609 2.344l-.016.266c0 .562.198 1.026.594 1.39.396.365.938.547 1.625.547zm21.281-13.765h4.516V392h-4.516v-10.438L334.328 392h-4.531v-16.906h4.531v10.422l5.656-10.422zm2.657-6.86c0 1.386-.5 2.506-1.5 3.36-.99.854-2.292 1.281-3.907 1.281-1.614 0-2.922-.422-3.922-1.266-.989-.843-1.484-1.968-1.484-3.375h3.203c0 .657.193 1.167.578 1.532.396.354.938.531 1.625.531.677 0 1.209-.177 1.594-.531.386-.365.578-.875.578-1.532h3.235z" fill="#fff"/></g><circle cx="371.5" cy="285.5" r="15.5" fill="#fff" fill-opacity=".56"/><g filter="url(#filter5_d)"><path d="M389 260l2 1-14.072 19.121L389 260z" fill="#F8FD00"/></g><g filter="url(#filter6_d)"><path d="M357.531 316.37l-2.049-.894 13.056-19.829-11.007 20.723z" fill="#F8FD00"/></g><g filter="url(#filter7_d)"><path d="M342.782 303.833l-1.328-1.8 21.225-10.638-19.897 12.438z" fill="#F8FD00"/></g><g filter="url(#filter8_d)"><path d="M363.937 258.345l2.153-.605 2.437 23.616-4.59-23.011z" fill="#F8FD00"/></g><g filter="url(#filter9_d)"><path d="M339.518 277.14l.448-2.191 22.112 8.644-22.56-6.453z" fill="#F8FD00"/></g><path d="M371.773 282.011l149.283-.026c2.159.243 3.223 1.019 3.81 1.607a5.351 5.351 0 010 7.565l-27.696 27.696-.536.536.704.282 54.516 21.845h0a3.39 3.39 0 011.888 4.417v.001l-10.147 25.368c-.175.436-.43.826-.75 1.146a3.57 3.57 0 01-1.065.728 3.418 3.418 0 01-2.598.022v-.001l-56.303-22.55-.637-.255-.047.685-2.663 38.72-.002.018v.018c.005 1.032-.543 2.354-1.54 3.351a5.352 5.352 0 01-7.566 0L368.397 291.157c-2.941-2.941-1.104-8.609 3.376-9.146z" fill="#fff" stroke="#000"/><g filter="url(#filter10_d)"><path d="M269.922 173.441c-2.854-2.961-6.798-4.441-11.832-4.441-1.393 0-2.815.257-4.264.77a16.82 16.82 0 00-4.045 2.077 43.035 43.035 0 00-3.219 2.453 31.847 31.847 0 00-2.562 2.435 31.847 31.847 0 00-2.562-2.435 43.517 43.517 0 00-3.219-2.453 16.839 16.839 0 00-4.045-2.077c-1.45-.513-2.871-.77-4.264-.77-5.035 0-8.978 1.48-11.832 4.441-2.854 2.96-4.281 7.067-4.281 12.319 0 1.6.264 3.247.792 4.942.528 1.695 1.13 3.14 1.804 4.333a31.742 31.742 0 002.292 3.492c.854 1.134 1.478 1.915 1.871 2.346.393.429.702.739.927.93l21.034 21.559c.404.431.899.646 1.483.646.584 0 1.079-.215 1.483-.645l21.001-21.488c5.146-5.466 7.719-10.839 7.719-16.115 0-5.252-1.427-9.359-4.281-12.319z" fill="red"/></g><g filter="url(#filter11_d)"><path d="M342.719 173.441c-2.854-2.961-6.798-4.441-11.832-4.441-1.393 0-2.815.257-4.264.77a16.82 16.82 0 00-4.045 2.077 43.243 43.243 0 00-3.219 2.453 31.847 31.847 0 00-2.562 2.435 31.847 31.847 0 00-2.562-2.435 43.517 43.517 0 00-3.219-2.453 16.82 16.82 0 00-4.045-2.077c-1.45-.513-2.871-.77-4.264-.77-5.034 0-8.978 1.48-11.832 4.441-2.854 2.96-4.281 7.067-4.281 12.319 0 1.6.264 3.247.792 4.942.528 1.695 1.13 3.14 1.804 4.333a31.742 31.742 0 002.292 3.492c.854 1.134 1.478 1.915 1.871 2.346.393.429.702.739.927.93l21.034 21.559c.404.431.899.646 1.483.646.584 0 1.079-.215 1.483-.645l21.001-21.488c5.146-5.466 7.719-10.839 7.719-16.115 0-5.252-1.427-9.359-4.281-12.319z" fill="#fff"/></g><g filter="url(#filter12_d)"><path d="M197.125 173.441c-2.854-2.961-6.798-4.441-11.832-4.441-1.393 0-2.815.257-4.264.77a16.82 16.82 0 00-4.045 2.077 43.035 43.035 0 00-3.219 2.453 31.847 31.847 0 00-2.562 2.435 31.847 31.847 0 00-2.562-2.435 43.517 43.517 0 00-3.219-2.453 16.82 16.82 0 00-4.045-2.077c-1.45-.513-2.871-.77-4.264-.77-5.034 0-8.978 1.48-11.832 4.441-2.854 2.96-4.281 7.067-4.281 12.319 0 1.6.264 3.247.792 4.942.528 1.695 1.13 3.14 1.804 4.333a31.742 31.742 0 002.292 3.492c.854 1.134 1.478 1.915 1.871 2.346.393.429.702.739.927.93l21.034 21.559c.404.431.899.646 1.483.646.584 0 1.079-.215 1.483-.645l21.001-21.488c5.146-5.466 7.719-10.839 7.719-16.115 0-5.252-1.427-9.359-4.281-12.319z" fill="red"/></g><g clip-path="url(#clip0)" filter="url(#filter13_d)"><path d="M772.316 209.254h-17.619v-1.469a8.953 8.953 0 00-2.689-6.291c-6.256-6.343-6.195-16.552.135-22.82 6.331-6.268 16.54-6.227 22.82.092 6.28 6.319 6.258 16.529-.049 22.82a8.704 8.704 0 00-2.598 6.199v1.469z" fill="#FFCB5A"/><path d="M756.165 212.19h14.683a1.469 1.469 0 010 2.937h-14.683a1.468 1.468 0 110-2.937zm2.937 5.873h8.809a1.469 1.469 0 110 2.937h-8.809a1.469 1.469 0 110-2.937z" fill="#62808C"/><path d="M753.228 188.698h2.937v2.936h-2.937v-2.936zm5.874 2.936h2.936v17.62h2.937v-17.62h2.936v-2.936h-8.809v2.936zm11.746-2.936h2.937v2.936h-2.937v-2.936z" fill="#fff"/></g><path d="M531.031 208v-22.75H539c2.76 0 4.854.531 6.281 1.594 1.427 1.052 2.141 2.599 2.141 4.64 0 1.115-.287 2.099-.86 2.954-.572.843-1.369 1.463-2.39 1.859 1.167.292 2.083.88 2.75 1.765.677.886 1.016 1.969 1.016 3.25 0 2.188-.698 3.844-2.094 4.969-1.396 1.125-3.386 1.698-5.969 1.719h-8.844zm4.688-9.906v6.14h4.015c1.105 0 1.964-.26 2.578-.781.626-.531.938-1.26.938-2.187 0-2.084-1.078-3.141-3.234-3.172h-4.297zm0-3.313h3.469c2.364-.041 3.546-.984 3.546-2.828 0-1.031-.302-1.771-.906-2.219-.594-.458-1.536-.687-2.828-.687h-3.281v5.734zm30.672 4.922c0 2.604-.594 4.693-1.782 6.266-1.177 1.562-2.77 2.343-4.781 2.343-1.708 0-3.088-.593-4.14-1.781v7.969h-4.516v-23.406h4.187l.157 1.656c1.093-1.312 2.52-1.969 4.281-1.969 2.083 0 3.703.771 4.859 2.313 1.156 1.541 1.735 3.666 1.735 6.375v.234zm-4.516-.328c0-1.573-.281-2.786-.844-3.641-.552-.854-1.359-1.281-2.422-1.281-1.416 0-2.39.542-2.921 1.625V203c.552 1.115 1.536 1.672 2.953 1.672 2.156 0 3.234-1.766 3.234-5.297zm15.109 8.937c-2.479 0-4.5-.76-6.062-2.281-1.552-1.521-2.328-3.547-2.328-6.078v-.437c0-1.698.328-3.214.984-4.547.656-1.344 1.583-2.375 2.781-3.094 1.209-.729 2.584-1.094 4.125-1.094 2.313 0 4.131.729 5.454 2.188 1.333 1.458 2 3.526 2 6.203v1.844h-10.766c.146 1.104.583 1.989 1.312 2.656.74.667 1.672 1 2.797 1 1.74 0 3.099-.63 4.078-1.891l2.219 2.485c-.677.958-1.594 1.708-2.75 2.25-1.156.531-2.437.796-3.844.796zm-.515-13.874c-.896 0-1.625.302-2.188.906-.552.604-.906 1.468-1.062 2.594h6.281v-.36c-.021-1-.292-1.771-.812-2.312-.521-.552-1.261-.828-2.219-.828zm20.343 8.234l4.422-11.578h5.657V208h-4.516v-10.375L598.328 208h-3.031l-3.969-10.203V208h-4.516v-16.906h5.61l4.39 11.578zm28.11-11.578V208h-4.5v-5.844h-2.86l-3.25 5.844h-4.578l3.688-6.609c-1.011-.469-1.792-1.105-2.344-1.907-.542-.802-.812-1.713-.812-2.734 0-1.635.63-2.974 1.89-4.016 1.271-1.052 2.969-1.599 5.094-1.64h7.672zM617.328 199h3.094v-4.281h-2.938c-.802 0-1.453.213-1.953.64-.5.417-.75.927-.75 1.532 0 .604.24 1.104.719 1.5.479.395 1.089.599 1.828.609zm11.625 6.781c0-.719.24-1.302.719-1.75.489-.448 1.099-.672 1.828-.672.74 0 1.349.224 1.828.672.49.448.734 1.031.734 1.75 0 .709-.239 1.287-.718 1.735-.479.437-1.094.656-1.844.656-.74 0-1.349-.219-1.828-.656-.479-.448-.719-1.026-.719-1.735zm0-12.797c0-.718.24-1.302.719-1.75.489-.448 1.099-.672 1.828-.672.74 0 1.349.224 1.828.672.49.448.734 1.032.734 1.75 0 .709-.239 1.287-.718 1.735-.479.437-1.094.656-1.844.656-.74 0-1.349-.219-1.828-.656-.479-.448-.719-1.026-.719-1.735zm31.906 5.61c0 3.146-.651 5.552-1.953 7.218-1.302 1.667-3.208 2.5-5.718 2.5-2.48 0-4.376-.817-5.688-2.453-1.312-1.635-1.984-3.979-2.016-7.031v-4.187c0-3.177.657-5.589 1.969-7.235 1.323-1.646 3.224-2.468 5.703-2.468s4.375.817 5.688 2.453c1.312 1.625 1.984 3.963 2.015 7.015v4.188zM656.344 194c0-1.885-.261-3.255-.782-4.109-.51-.865-1.312-1.297-2.406-1.297-1.062 0-1.849.411-2.359 1.234-.5.813-.766 2.089-.797 3.828v5.532c0 1.854.25 3.234.75 4.14.51.896 1.323 1.344 2.438 1.344 1.104 0 1.901-.432 2.39-1.297.49-.865.745-2.187.766-3.969V194zm22.89 4.594c0 3.146-.651 5.552-1.953 7.218-1.302 1.667-3.208 2.5-5.719 2.5-2.479 0-4.374-.817-5.687-2.453-1.313-1.635-1.984-3.979-2.016-7.031v-4.187c0-3.177.657-5.589 1.969-7.235 1.323-1.646 3.224-2.468 5.703-2.468s4.375.817 5.688 2.453c1.312 1.625 1.984 3.963 2.015 7.015v4.188zM674.719 194c0-1.885-.261-3.255-.781-4.109-.511-.865-1.313-1.297-2.407-1.297-1.062 0-1.849.411-2.359 1.234-.5.813-.766 2.089-.797 3.828v5.532c0 1.854.25 3.234.75 4.14.51.896 1.323 1.344 2.437 1.344 1.105 0 1.902-.432 2.391-1.297.49-.865.745-2.187.766-3.969V194zm7.984 11.781c0-.719.24-1.302.719-1.75.489-.448 1.099-.672 1.828-.672.74 0 1.349.224 1.828.672.49.448.734 1.031.734 1.75 0 .709-.239 1.287-.718 1.735-.479.437-1.094.656-1.844.656-.74 0-1.349-.219-1.828-.656-.479-.448-.719-1.026-.719-1.735zm0-12.797c0-.718.24-1.302.719-1.75.489-.448 1.099-.672 1.828-.672.74 0 1.349.224 1.828.672.49.448.734 1.032.734 1.75 0 .709-.239 1.287-.718 1.735-.479.437-1.094.656-1.844.656-.74 0-1.349-.219-1.828-.656-.479-.448-.719-1.026-.719-1.735zm29.953 6.454h2.578v3.64h-2.578V208h-4.515v-4.922h-9.329l-.203-2.844 9.485-14.984h4.562v14.188zm-9.547 0h5.032v-8.032l-.297.516-4.735 7.516zm15.235-2.626l1.312-11.562h12.75v3.766h-9.047l-.562 4.89a7.157 7.157 0 013.422-.859c2.166 0 3.864.672 5.093 2.015 1.23 1.344 1.844 3.224 1.844 5.641 0 1.469-.312 2.787-.937 3.953a6.57 6.57 0 01-2.657 2.703c-1.156.636-2.52.953-4.093.953-1.375 0-2.651-.276-3.828-.828-1.177-.562-2.11-1.349-2.797-2.359-.677-1.01-1.037-2.161-1.078-3.453h4.468c.094.948.422 1.687.985 2.219.573.52 1.317.781 2.234.781 1.021 0 1.807-.365 2.359-1.094.553-.739.829-1.781.829-3.125 0-1.292-.318-2.281-.953-2.969-.636-.687-1.537-1.031-2.704-1.031-1.073 0-1.942.281-2.609.844l-.437.406-3.594-.891z" fill="#fff"/></g><defs><filter id="filter0_dd" x="0" y="0" width="1008" height="508" filterUnits="userSpaceOnUse" color-interpolation-filters="sRGB"><feFlood flood-opacity="0" result="BackgroundImageFix"/><feColorMatrix in="SourceAlpha" values="0 0 0 0 0 0 0 0 0 0 0 0 0 0 0 0 0 0 127 0"/><feOffset dy="4"/><feGaussianBlur stdDeviation="2"/><feColorMatrix values="0 0 0 0 0 0 0 0 0 0 0 0 0 0 0 0 0 0 0.25 0"/><feBlend in2="BackgroundImageFix" result="effect1_dropShadow"/><feColorMatrix in="SourceAlpha" values="0 0 0 0 0 0 0 0 0 0 0 0 0 0 0 0 0 0 127 0"/><feOffset dy="4"/><feGaussianBlur stdDeviation="2"/><feColorMatrix values="0 0 0 0 0 0 0 0 0 0 0 0 0 0 0 0 0 0 0.25 0"/><feBlend in2="effect1_dropShadow" result="effect2_dropShadow"/><feBlend in="SourceGraphic" in2="effect2_dropShadow" result="shape"/></filter><filter id="filter1_d" x="473" y="250" width="318" height="82" filterUnits="userSpaceOnUse" color-interpolation-filters="sRGB"><feFlood flood-opacity="0" result="BackgroundImageFix"/><feColorMatrix in="SourceAlpha" values="0 0 0 0 0 0 0 0 0 0 0 0 0 0 0 0 0 0 127 0"/><feOffset dy="4"/><feGaussianBlur stdDeviation="2"/><feColorMatrix values="0 0 0 0 0 0 0 0 0 0 0 0 0 0 0 0 0 0 0.25 0"/><feBlend in2="BackgroundImageFix" result="effect1_dropShadow"/><feBlend in="SourceGraphic" in2="effect1_dropShadow" result="shape"/></filter><filter id="filter2_d" x="473" y="344" width="318" height="82" filterUnits="userSpaceOnUse" color-interpolation-filters="sRGB"><feFlood flood-opacity="0" result="BackgroundImageFix"/><feColorMatrix in="SourceAlpha" values="0 0 0 0 0 0 0 0 0 0 0 0 0 0 0 0 0 0 127 0"/><feOffset dy="4"/><feGaussianBlur stdDeviation="2"/><feColorMatrix values="0 0 0 0 0 0 0 0 0 0 0 0 0 0 0 0 0 0 0.25 0"/><feBlend in2="BackgroundImageFix" result="effect1_dropShadow"/><feBlend in="SourceGraphic" in2="effect1_dropShadow" result="shape"/></filter><filter id="filter3_d" x="143" y="250" width="318" height="82" filterUnits="userSpaceOnUse" color-interpolation-filters="sRGB"><feFlood flood-opacity="0" result="BackgroundImageFix"/><feColorMatrix in="SourceAlpha" values="0 0 0 0 0 0 0 0 0 0 0 0 0 0 0 0 0 0 127 0"/><feOffset dy="4"/><feGaussianBlur stdDeviation="2"/><feColorMatrix values="0 0 0 0 0 0 0 0 0 0 0 0 0 0 0 0 0 0 0.25 0"/><feBlend in2="BackgroundImageFix" result="effect1_dropShadow"/><feBlend in="SourceGraphic" in2="effect1_dropShadow" result="shape"/></filter><filter id="filter4_d" x="143" y="344" width="318" height="82" filterUnits="userSpaceOnUse" color-interpolation-filters="sRGB"><feFlood flood-opacity="0" result="BackgroundImageFix"/><feColorMatrix in="SourceAlpha" values="0 0 0 0 0 0 0 0 0 0 0 0 0 0 0 0 0 0 127 0"/><feOffset dy="4"/><feGaussianBlur stdDeviation="2"/><feColorMatrix values="0 0 0 0 0 0 0 0 0 0 0 0 0 0 0 0 0 0 0.25 0"/><feBlend in2="BackgroundImageFix" result="effect1_dropShadow"/><feBlend in="SourceGraphic" in2="effect1_dropShadow" result="shape"/></filter><filter id="filter5_d" x="372.928" y="260" width="22.072" height="28.121" filterUnits="userSpaceOnUse" color-interpolation-filters="sRGB"><feFlood flood-opacity="0" result="BackgroundImageFix"/><feColorMatrix in="SourceAlpha" values="0 0 0 0 0 0 0 0 0 0 0 0 0 0 0 0 0 0 127 0"/><feOffset dy="4"/><feGaussianBlur stdDeviation="2"/><feColorMatrix values="0 0 0 0 0 0 0 0 0 0 0 0 0 0 0 0 0 0 0.25 0"/><feBlend in2="BackgroundImageFix" result="effect1_dropShadow"/><feBlend in="SourceGraphic" in2="effect1_dropShadow" result="shape"/></filter><filter id="filter6_d" x="350.485" y="295.647" width="23.102" height="28.828" filterUnits="userSpaceOnUse" color-interpolation-filters="sRGB"><feFlood flood-opacity="0" result="BackgroundImageFix"/><feColorMatrix in="SourceAlpha" values="0 0 0 0 0 0 0 0 0 0 0 0 0 0 0 0 0 0 127 0"/><feOffset dy="4"/><feGaussianBlur stdDeviation="2"/><feColorMatrix values="0 0 0 0 0 0 0 0 0 0 0 0 0 0 0 0 0 0 0.25 0"/><feBlend in2="BackgroundImageFix" result="effect1_dropShadow"/><feBlend in="SourceGraphic" in2="effect1_dropShadow" result="shape"/></filter><filter id="filter7_d" x="337" y="285" width="29.679" height="32.319" filterUnits="userSpaceOnUse" color-interpolation-filters="sRGB"><feFlood flood-opacity="0" result="BackgroundImageFix"/><feColorMatrix in="SourceAlpha" values="0 0 0 0 0 0 0 0 0 0 0 0 0 0 0 0 0 0 127 0"/><feOffset dy="4"/><feGaussianBlur stdDeviation="2"/><feColorMatrix values="0 0 0 0 0 0 0 0 0 0 0 0 0 0 0 0 0 0 0.25 0"/><feBlend in2="BackgroundImageFix" result="effect1_dropShadow"/><feBlend in="SourceGraphic" in2="effect1_dropShadow" result="shape"/></filter><filter id="filter8_d" x="351" y="257" width="31.945" height="32.356" filterUnits="userSpaceOnUse" color-interpolation-filters="sRGB"><feFlood flood-opacity="0" result="BackgroundImageFix"/><feColorMatrix in="SourceAlpha" values="0 0 0 0 0 0 0 0 0 0 0 0 0 0 0 0 0 0 127 0"/><feOffset dy="4"/><feGaussianBlur stdDeviation="2"/><feColorMatrix values="0 0 0 0 0 0 0 0 0 0 0 0 0 0 0 0 0 0 0.25 0"/><feBlend in2="BackgroundImageFix" result="effect1_dropShadow"/><feBlend in="SourceGraphic" in2="effect1_dropShadow" result="shape"/></filter><filter id="filter9_d" x="335" y="270" width="31.078" height="26.801" filterUnits="userSpaceOnUse" color-interpolation-filters="sRGB"><feFlood flood-opacity="0" result="BackgroundImageFix"/><feColorMatrix in="SourceAlpha" values="0 0 0 0 0 0 0 0 0 0 0 0 0 0 0 0 0 0 127 0"/><feOffset dy="4"/><feGaussianBlur stdDeviation="2"/><feColorMatrix values="0 0 0 0 0 0 0 0 0 0 0 0 0 0 0 0 0 0 0.25 0"/><feBlend in2="BackgroundImageFix" result="effect1_dropShadow"/><feBlend in="SourceGraphic" in2="effect1_dropShadow" result="shape"/></filter><filter id="filter10_d" x="209.797" y="166" width="68.406" height="63.008" filterUnits="userSpaceOnUse" color-interpolation-filters="sRGB"><feFlood flood-opacity="0" result="BackgroundImageFix"/><feColorMatrix in="SourceAlpha" values="0 0 0 0 0 0 0 0 0 0 0 0 0 0 0 0 0 0 127 0"/><feOffset dy="1"/><feGaussianBlur stdDeviation="2"/><feColorMatrix values="0 0 0 0 0 0 0 0 0 0 0 0 0 0 0 0 0 0 0.25 0"/><feBlend in2="BackgroundImageFix" result="effect1_dropShadow"/><feBlend in="SourceGraphic" in2="effect1_dropShadow" result="shape"/></filter><filter id="filter11_d" x="282.594" y="166" width="68.406" height="63.008" filterUnits="userSpaceOnUse" color-interpolation-filters="sRGB"><feFlood flood-opacity="0" result="BackgroundImageFix"/><feColorMatrix in="SourceAlpha" values="0 0 0 0 0 0 0 0 0 0 0 0 0 0 0 0 0 0 127 0"/><feOffset dy="1"/><feGaussianBlur stdDeviation="2"/><feColorMatrix values="0 0 0 0 0 0 0 0 0 0 0 0 0 0 0 0 0 0 0.25 0"/><feBlend in2="BackgroundImageFix" result="effect1_dropShadow"/><feBlend in="SourceGraphic" in2="effect1_dropShadow" result="shape"/></filter><filter id="filter12_d" x="137" y="166" width="68.406" height="63.008" filterUnits="userSpaceOnUse" color-interpolation-filters="sRGB"><feFlood flood-opacity="0" result="BackgroundImageFix"/><feColorMatrix in="SourceAlpha" values="0 0 0 0 0 0 0 0 0 0 0 0 0 0 0 0 0 0 127 0"/><feOffset dy="1"/><feGaussianBlur stdDeviation="2"/><feColorMatrix values="0 0 0 0 0 0 0 0 0 0 0 0 0 0 0 0 0 0 0.25 0"/><feBlend in2="BackgroundImageFix" result="effect1_dropShadow"/><feBlend in="SourceGraphic" in2="effect1_dropShadow" result="shape"/></filter><filter id="filter13_d" x="740" y="174" width="49" height="49" filterUnits="userSpaceOnUse" color-interpolation-filters="sRGB"><feFlood flood-opacity="0" result="BackgroundImageFix"/><feColorMatrix in="SourceAlpha" values="0 0 0 0 0 0 0 0 0 0 0 0 0 0 0 0 0 0 127 0"/><feOffset dx="2" dy="2"/><feColorMatrix values="0 0 0 0 0 0 0 0 0 0 0 0 0 0 0 0 0 0 0.25 0"/><feBlend in2="BackgroundImageFix" result="effect1_dropShadow"/><feBlend in="SourceGraphic" in2="effect1_dropShadow" result="shape"/></filter><clipPath id="clip0"><path fill="#fff" transform="translate(740 174)" d="M0 0h47v47H0z"/></clipPath></defs></svg>