<svg width="512" height="512" fill="none" xmlns="http://www.w3.org/2000/svg"><g clip-path="url(#clip0)"><path d="M266.199 300.876c18.872 17.697 54.49 37.24 96.86 37.24 65.648 0 113.604-48.665 113.607-48.668V98.715c0-4.141-4.625-6.599-8.052-4.274-16.285 11.045-55.849 33.785-105.554 33.785-21.551 0-41.195-4.275-57.862-10.018l-50.891 173.295 11.892 9.373z" fill="#22AAA1"/><path d="M363.06 329.116c-42.37 0-77.366-16.522-96.86-28.24l-10.2-2.985-6.547 10.138s47.958 39.668 113.607 39.668c57.733 0 101.784-30.678 111.568-38.077a5.143 5.143 0 002.039-4.11v-16.062c-.001 0-47.958 39.668-113.607 39.668z" fill="#128880"/><path d="M249.453 273.149v34.88l38.998-16.658c-3.913-10.176-20.348-21.318-38.998-18.222z" fill="#12938A"/><path d="M305.197 284.219s-21.639-17.899-55.744-29.65v18.581c16.101 5.548 29.419 12.464 38.998 18.222l16.746-7.153z" fill="#0D827A"/><path d="M191.591 237.469c65.649 0 113.607 28.169 113.607 28.169V61.98s-47.957-39.668-113.607-39.668c-65.649 0-113.607 39.668-113.607 39.668l-9 95.152 9 108.506c.003-.002 47.959-28.169 113.607-28.169z" fill="#22C5BA"/><path d="M77.984 265.638l-9 7.332 9 11.249s47.958-39.668 113.607-39.668 113.607 39.668 113.607 39.668v-18.581s-47.957-39.668-113.607-39.668c-65.649 0-113.607 39.668-113.607 39.668z" fill="#22AAA1"/><path d="M45.656 502.419h22.005c5.701 0 10.323-7.764 10.323-19.323V21.325C77.984 9.548 68.437 0 56.659 0 44.881 0 35.334 9.548 35.334 21.325v461.772c0 14.451 4.621 19.322 10.322 19.322z" fill="#9D7D52"/><path d="M67.661 493.419H45.656c-5.701 0-10.323-4.622-10.323-10.323v18.581c0 5.701 4.622 10.323 10.323 10.323h22.005c5.701 0 10.323-4.622 10.323-10.323v-18.581c0 5.702-4.621 10.323-10.323 10.323z" fill="#8A6D49"/></g><defs><clipPath id="clip0"><path fill="#fff" d="M0 0h512v512H0z"/></clipPath></defs></svg>