<svg width="47" height="49" fill="none" xmlns="http://www.w3.org/2000/svg"><g filter="url(#filter0_d)"><path d="M40.236 6.27C38.393 4.09 35.847 3 32.596 3c-.899 0-1.817.189-2.752.567a10.42 10.42 0 00-2.611 1.53 28.732 28.732 0 00-2.08 1.806c-.58.563-1.13 1.16-1.653 1.793a22.054 22.054 0 00-1.654-1.793 28.777 28.777 0 00-2.079-1.806 10.456 10.456 0 00-2.611-1.53C16.22 3.189 15.302 3 14.403 3c-3.25 0-5.796 1.09-7.64 3.27C4.922 8.45 4 11.474 4 15.342c0 1.178.17 2.391.512 3.64.34 1.248.729 2.312 1.164 3.19.435.88.928 1.737 1.48 2.572.551.835.954 1.41 1.208 1.727.254.316.453.545.598.685l13.58 15.877c.262.316.58.475.958.475.377 0 .697-.159.958-.475L38.016 27.21C41.34 23.184 43 19.228 43 15.342c0-3.868-.921-6.892-2.764-9.072z" fill="red"/></g><defs><filter id="filter0_d" x="0" y="0" width="47" height="48.508" filterUnits="userSpaceOnUse" color-interpolation-filters="sRGB"><feFlood flood-opacity="0" result="BackgroundImageFix"/><feColorMatrix in="SourceAlpha" values="0 0 0 0 0 0 0 0 0 0 0 0 0 0 0 0 0 0 127 0"/><feOffset dy="1"/><feGaussianBlur stdDeviation="2"/><feColorMatrix values="0 0 0 0 0 0 0 0 0 0 0 0 0 0 0 0 0 0 0.25 0"/><feBlend in2="BackgroundImageFix" result="effect1_dropShadow"/><feBlend in="SourceGraphic" in2="effect1_dropShadow" result="shape"/></filter></defs></svg>