<svg width="1060" height="600" fill="none" xmlns="http://www.w3.org/2000/svg"><path d="M1060 0H0v600h1060V0z" fill="#EE1C25"/><path d="M176.667 60l62.305 162.812L75.855 122.188h201.624L114.361 222.812 176.667 60zM367.16 32.392l-5.9 56.843-34.578-48.931 61.848 22.33-65.495 12.8 44.125-43.042zm82.201 66.719l-31.418 50.445-9.504-56.49 46.796 40.958-66.213-9.781 60.339-25.132zm7.83 100.601l-52.921 35.175 18.463-54.868 23.047 53.604-55.754-31.865 67.165-2.046zM365.8 241.929l-3.119 57.002-36.938-47.672 62.886 20.133-64.814 15.096 41.985-44.559z" fill="#FF0"/></svg>