<svg width="218" height="135" viewBox="0 0 218 135" fill="none" xmlns="http://www.w3.org/2000/svg">
<g filter="url(#filter0_d)">
<path d="M4 0H214V82H4V0Z" fill="#48E445"/>
<path d="M90 126C93 124 68.5 82 68.5 82H4C4 82 87 128 90 126Z" fill="#48E445"/>
</g>
<path d="M21.0234 52V32.0938H26.9023C28.6615 32.0938 30.2201 32.4857 31.5781 33.2695C32.9453 34.0534 34.0026 35.1654 34.75 36.6055C35.4974 38.0456 35.8711 39.6953 35.8711 41.5547V42.5527C35.8711 44.4395 35.4928 46.0983 34.7363 47.5293C33.9889 48.9603 32.918 50.0632 31.5234 50.8379C30.138 51.6126 28.5475 52 26.752 52H21.0234ZM24.4824 34.8828V49.2383H26.7383C28.5521 49.2383 29.9421 48.6732 30.9082 47.543C31.8835 46.4036 32.3802 44.7721 32.3984 42.6484V41.541C32.3984 39.3809 31.929 37.7311 30.9902 36.5918C30.0514 35.4525 28.6888 34.8828 26.9023 34.8828H24.4824ZM42.5293 52H39.207V37.207H42.5293V52ZM39.002 33.3652C39.002 32.8548 39.1615 32.431 39.4805 32.0938C39.8086 31.7565 40.2734 31.5879 40.875 31.5879C41.4766 31.5879 41.9414 31.7565 42.2695 32.0938C42.5977 32.431 42.7617 32.8548 42.7617 33.3652C42.7617 33.8665 42.5977 34.2858 42.2695 34.623C41.9414 34.9512 41.4766 35.1152 40.875 35.1152C40.2734 35.1152 39.8086 34.9512 39.4805 34.623C39.1615 34.2858 39.002 33.8665 39.002 33.3652ZM45.5371 44.4941C45.5371 42.2155 46.0658 40.388 47.123 39.0117C48.1803 37.6263 49.5977 36.9336 51.375 36.9336C52.9427 36.9336 54.2096 37.4805 55.1758 38.5742V31H58.498V52H55.4902L55.3262 50.4688C54.3327 51.6719 53.0065 52.2734 51.3477 52.2734C49.6159 52.2734 48.2122 51.5762 47.1367 50.1816C46.0703 48.7871 45.5371 46.8913 45.5371 44.4941ZM48.8594 44.7812C48.8594 46.2852 49.1465 47.4609 49.7207 48.3086C50.304 49.1471 51.1289 49.5664 52.1953 49.5664C53.5534 49.5664 54.5469 48.9603 55.1758 47.748V41.4316C54.5651 40.2467 53.5807 39.6543 52.2227 39.6543C51.1471 39.6543 50.3177 40.0827 49.7344 40.9395C49.151 41.7871 48.8594 43.0677 48.8594 44.7812ZM74.1113 47.2422L77.1191 37.207H80.6602L74.7812 54.2422C73.8789 56.7305 72.3477 57.9746 70.1875 57.9746C69.7044 57.9746 69.1712 57.8926 68.5879 57.7285V55.1582L69.2168 55.1992C70.0553 55.1992 70.6842 55.0443 71.1035 54.7344C71.5319 54.4336 71.8691 53.9232 72.1152 53.2031L72.5938 51.9316L67.3984 37.207H70.9805L74.1113 47.2422ZM81.7402 44.4668C81.7402 43.0176 82.0273 41.7142 82.6016 40.5566C83.1758 39.39 83.9824 38.4967 85.0215 37.877C86.0605 37.248 87.2546 36.9336 88.6035 36.9336C90.5996 36.9336 92.2174 37.5762 93.457 38.8613C94.7057 40.1465 95.3802 41.8509 95.4805 43.9746L95.4941 44.7539C95.4941 46.2122 95.2116 47.5156 94.6465 48.6641C94.0905 49.8125 93.2884 50.7012 92.2402 51.3301C91.2012 51.959 89.998 52.2734 88.6309 52.2734C86.5436 52.2734 84.8711 51.5807 83.6133 50.1953C82.3646 48.8008 81.7402 46.946 81.7402 44.6309V44.4668ZM85.0625 44.7539C85.0625 46.276 85.377 47.4701 86.0059 48.3359C86.6348 49.1927 87.5098 49.6211 88.6309 49.6211C89.752 49.6211 90.6224 49.1836 91.2422 48.3086C91.8711 47.4336 92.1855 46.153 92.1855 44.4668C92.1855 42.972 91.862 41.7871 91.2148 40.9121C90.5768 40.0371 89.7064 39.5996 88.6035 39.5996C87.5189 39.5996 86.6576 40.0326 86.0195 40.8984C85.3815 41.7552 85.0625 43.0404 85.0625 44.7539ZM107.266 50.5508C106.29 51.6992 104.905 52.2734 103.109 52.2734C101.505 52.2734 100.288 51.804 99.459 50.8652C98.6387 49.9264 98.2285 48.5684 98.2285 46.791V37.207H101.551V46.75C101.551 48.6276 102.33 49.5664 103.889 49.5664C105.502 49.5664 106.591 48.9876 107.156 47.8301V37.207H110.479V52H107.348L107.266 50.5508ZM125.641 45.6562L124.164 47.1738V52H120.842V31H124.164V43.1133L125.203 41.8145L129.291 37.207H133.283L127.787 43.373L133.871 52H130.029L125.641 45.6562ZM138.547 37.207L138.643 38.916C139.736 37.5944 141.172 36.9336 142.949 36.9336C146.03 36.9336 147.598 38.6973 147.652 42.2246V52H144.33V42.416C144.33 41.4772 144.125 40.7845 143.715 40.3379C143.314 39.8822 142.653 39.6543 141.732 39.6543C140.393 39.6543 139.395 40.2604 138.738 41.4727V52H135.416V37.207H138.547ZM150.428 44.4668C150.428 43.0176 150.715 41.7142 151.289 40.5566C151.863 39.39 152.67 38.4967 153.709 37.877C154.748 37.248 155.942 36.9336 157.291 36.9336C159.287 36.9336 160.905 37.5762 162.145 38.8613C163.393 40.1465 164.068 41.8509 164.168 43.9746L164.182 44.7539C164.182 46.2122 163.899 47.5156 163.334 48.6641C162.778 49.8125 161.976 50.7012 160.928 51.3301C159.889 51.959 158.686 52.2734 157.318 52.2734C155.231 52.2734 153.559 51.5807 152.301 50.1953C151.052 48.8008 150.428 46.946 150.428 44.6309V44.4668ZM153.75 44.7539C153.75 46.276 154.064 47.4701 154.693 48.3359C155.322 49.1927 156.197 49.6211 157.318 49.6211C158.439 49.6211 159.31 49.1836 159.93 48.3086C160.559 47.4336 160.873 46.153 160.873 44.4668C160.873 42.972 160.549 41.7871 159.902 40.9121C159.264 40.0371 158.394 39.5996 157.291 39.5996C156.206 39.5996 155.345 40.0326 154.707 40.8984C154.069 41.7552 153.75 43.0404 153.75 44.7539ZM179.986 47.4199L182.338 37.207H185.578L181.545 52H178.811L175.639 41.8418L172.521 52H169.787L165.74 37.207H168.98L171.373 47.3105L174.408 37.207H176.91L179.986 47.4199ZM190.883 46.1484C190.883 44.9362 191.033 43.9701 191.334 43.25C191.635 42.5299 192.227 41.7415 193.111 40.8848C194.005 40.0189 194.57 39.4036 194.807 39.0391C195.171 38.4831 195.354 37.8815 195.354 37.2344C195.354 36.3776 195.139 35.7259 194.711 35.2793C194.292 34.8236 193.672 34.5957 192.852 34.5957C192.068 34.5957 191.434 34.819 190.951 35.2656C190.477 35.7031 190.24 36.3001 190.24 37.0566H186.918C186.936 35.4434 187.483 34.1673 188.559 33.2285C189.643 32.2897 191.074 31.8203 192.852 31.8203C194.684 31.8203 196.11 32.2852 197.131 33.2148C198.161 34.1445 198.676 35.4434 198.676 37.1113C198.676 38.597 197.983 40.0599 196.598 41.5L194.916 43.1543C194.314 43.8379 194.005 44.8359 193.986 46.1484H190.883ZM190.65 50.4004C190.65 49.8626 190.819 49.4297 191.156 49.1016C191.493 48.7643 191.949 48.5957 192.523 48.5957C193.107 48.5957 193.567 48.7689 193.904 49.1152C194.242 49.4525 194.41 49.8809 194.41 50.4004C194.41 50.9017 194.246 51.321 193.918 51.6582C193.59 51.9954 193.125 52.1641 192.523 52.1641C191.922 52.1641 191.457 51.9954 191.129 51.6582C190.81 51.321 190.65 50.9017 190.65 50.4004Z" fill="white"/>
<defs>
<filter id="filter0_d" x="0" y="0" width="218" height="134.063" filterUnits="userSpaceOnUse" color-interpolation-filters="sRGB">
<feFlood flood-opacity="0" result="BackgroundImageFix"/>
<feColorMatrix in="SourceAlpha" type="matrix" values="0 0 0 0 0 0 0 0 0 0 0 0 0 0 0 0 0 0 127 0"/>
<feOffset dy="4"/>
<feGaussianBlur stdDeviation="2"/>
<feColorMatrix type="matrix" values="0 0 0 0 0 0 0 0 0 0 0 0 0 0 0 0 0 0 0.25 0"/>
<feBlend mode="normal" in2="BackgroundImageFix" result="effect1_dropShadow"/>
<feBlend mode="normal" in="SourceGraphic" in2="effect1_dropShadow" result="shape"/>
</filter>
</defs>
</svg>
