<svg width="47" height="49" viewBox="0 0 47 49" fill="none" xmlns="http://www.w3.org/2000/svg">
<g filter="url(#filter0_d)">
<path d="M40.2361 6.2703C38.3933 4.08979 35.8472 3 32.5969 3C31.6974 3 30.7794 3.18899 29.8438 3.56679C28.9078 3.94486 28.037 4.45493 27.2325 5.09664C26.427 5.73815 25.7347 6.3406 25.1539 6.90304C24.5738 7.46567 24.0223 8.06359 23.5 8.69633C22.9776 8.06359 22.4262 7.46567 21.846 6.90304C21.2655 6.3406 20.5729 5.73852 19.7675 5.09664C18.9622 4.45466 18.0916 3.94495 17.1558 3.56679C16.2201 3.18908 15.3023 3 14.4028 3C11.1527 3 8.60652 4.09007 6.76394 6.2703C4.92136 8.45035 4 11.4742 4 15.3421C4 16.5202 4.17075 17.7335 4.51156 18.9814C4.85238 20.2297 5.24076 21.2935 5.67594 22.1724C6.11105 23.0512 6.60447 23.9086 7.15583 24.7438C7.70718 25.579 8.11012 26.1543 8.36373 26.471C8.61757 26.7871 8.81713 27.0159 8.96219 27.1563L22.5424 43.0327C22.8036 43.3494 23.1228 43.5078 23.5 43.5078C23.8771 43.5078 24.1965 43.3494 24.4576 43.0333L38.0162 27.2095C41.3388 23.1837 43 19.2277 43 15.3421C43.0001 11.4742 42.0786 8.45035 40.2361 6.2703Z" fill="#FF0000"/>
</g>
<defs>
<filter id="filter0_d" x="0" y="0" width="47" height="48.5078" filterUnits="userSpaceOnUse" color-interpolation-filters="sRGB">
<feFlood flood-opacity="0" result="BackgroundImageFix"/>
<feColorMatrix in="SourceAlpha" type="matrix" values="0 0 0 0 0 0 0 0 0 0 0 0 0 0 0 0 0 0 127 0"/>
<feOffset dy="1"/>
<feGaussianBlur stdDeviation="2"/>
<feColorMatrix type="matrix" values="0 0 0 0 0 0 0 0 0 0 0 0 0 0 0 0 0 0 0.25 0"/>
<feBlend mode="normal" in2="BackgroundImageFix" result="effect1_dropShadow"/>
<feBlend mode="normal" in="SourceGraphic" in2="effect1_dropShadow" result="shape"/>
</filter>
</defs>
</svg>
