<svg width="41" height="43" viewBox="0 0 41 43" fill="none" xmlns="http://www.w3.org/2000/svg">
<g clip-path="url(#clip0)" filter="url(#filter0_d)">
<path d="M28.1907 30.7532H12.8203V29.4724C12.7959 27.4044 11.9526 25.4309 10.4753 23.9837C5.01788 18.4512 5.07073 9.54486 10.5929 4.07711C16.1154 -1.39032 25.0217 -1.35436 30.4997 4.15748C35.9775 9.66963 35.9584 18.5763 30.4566 24.0643C29.0075 25.4906 28.1913 27.4388 28.1907 29.4724V30.7532Z" fill="#FFCB5A"/>
<path d="M14.1012 33.315H26.9098C27.6175 33.315 28.1907 33.8882 28.1907 34.5958C28.1907 35.3032 27.6175 35.8767 26.9098 35.8767H14.1012C13.3938 35.8767 12.8203 35.3032 12.8203 34.5958C12.8203 33.8882 13.3938 33.315 14.1012 33.315Z" fill="#62808C"/>
<path d="M16.6629 38.4384H24.3481C25.0558 38.4384 25.629 39.0116 25.629 39.7193C25.629 40.4266 25.0558 41.0001 24.3481 41.0001H16.6629C15.9556 41.0001 15.3821 40.4266 15.3821 39.7193C15.3821 39.0116 15.9556 38.4384 16.6629 38.4384Z" fill="#62808C"/>
<path d="M11.5396 12.8211H14.1013V15.3829H11.5396V12.8211Z" fill="white"/>
<path d="M16.6631 15.3829H19.2248V30.7532H21.7865V15.3829H24.3483V12.8211H16.6631V15.3829Z" fill="white"/>
<path d="M26.9099 12.8211H29.4716V15.3829H26.9099V12.8211Z" fill="white"/>
</g>
<defs>
<filter id="filter0_d" x="0" y="0" width="43" height="43" filterUnits="userSpaceOnUse" color-interpolation-filters="sRGB">
<feFlood flood-opacity="0" result="BackgroundImageFix"/>
<feColorMatrix in="SourceAlpha" type="matrix" values="0 0 0 0 0 0 0 0 0 0 0 0 0 0 0 0 0 0 127 0"/>
<feOffset dx="2" dy="2"/>
<feColorMatrix type="matrix" values="0 0 0 0 0 0 0 0 0 0 0 0 0 0 0 0 0 0 0.25 0"/>
<feBlend mode="normal" in2="BackgroundImageFix" result="effect1_dropShadow"/>
<feBlend mode="normal" in="SourceGraphic" in2="effect1_dropShadow" result="shape"/>
</filter>
<clipPath id="clip0">
<rect width="41" height="41" fill="white"/>
</clipPath>
</defs>
</svg>
