<svg width="88" height="80" viewBox="0 0 88 80" fill="none" xmlns="http://www.w3.org/2000/svg">
<path d="M66.3636 42.3333L86.909 67.8333C71.4546 72.5 35.8181 71.5 22.0001 65V19.6667C35.6364 26.1667 71.4546 27.3334 86.9092 22.5L66.3636 42.3333Z" fill="#FC644F"/>
<path d="M22.0001 64.8333L33.0909 59.8333L24.909 37.1667L22.0001 41V64.8333Z" fill="#F1543F"/>
<path d="M6.90906 7.33329V52.5C6.90906 52.5 19.8181 49.3333 32.909 59.6667V14.6667C19.8183 4.16673 6.90906 7.33329 6.90906 7.33329Z" fill="#FF7058"/>
<path d="M5.45455 0C2.72728 0 0.363586 2 0.363586 4.5V80H10.3636V4.5C10.3636 2 8.18182 0 5.45455 0Z" fill="#40596B"/>
</svg>
