<svg width="1008" height="508" viewBox="0 0 1008 508" fill="none" xmlns="http://www.w3.org/2000/svg">
<g filter="url(#filter0_dd)">
<rect x="4" width="1000" height="500" rx="32" fill="#0A81D1"/>
<path d="M389 262.5L382.5 280L386.5 261.5L389 262.5Z" stroke="black"/>
<g filter="url(#filter1_d)">
<rect x="477" y="250" width="310" height="74" rx="8" fill="#FFB800"/>
<path d="M584.719 289.984V298H580.031V275.25H588.906C590.615 275.25 592.115 275.562 593.406 276.188C594.708 276.812 595.708 277.703 596.406 278.859C597.104 280.005 597.453 281.312 597.453 282.781C597.453 285.01 596.688 286.771 595.156 288.062C593.635 289.344 591.526 289.984 588.828 289.984H584.719ZM584.719 286.188H588.906C590.146 286.188 591.089 285.896 591.734 285.312C592.391 284.729 592.719 283.896 592.719 282.812C592.719 281.698 592.391 280.797 591.734 280.109C591.078 279.422 590.172 279.068 589.016 279.047H584.719V286.188ZM599.469 289.391C599.469 287.714 599.792 286.219 600.438 284.906C601.083 283.594 602.01 282.578 603.219 281.859C604.438 281.141 605.849 280.781 607.453 280.781C609.734 280.781 611.594 281.479 613.031 282.875C614.479 284.271 615.286 286.167 615.453 288.562L615.484 289.719C615.484 292.312 614.76 294.396 613.312 295.969C611.865 297.531 609.922 298.312 607.484 298.312C605.047 298.312 603.099 297.531 601.641 295.969C600.193 294.406 599.469 292.281 599.469 289.594V289.391ZM603.984 289.719C603.984 291.323 604.286 292.552 604.891 293.406C605.495 294.25 606.359 294.672 607.484 294.672C608.578 294.672 609.432 294.255 610.047 293.422C610.661 292.578 610.969 291.234 610.969 289.391C610.969 287.818 610.661 286.599 610.047 285.734C609.432 284.87 608.568 284.438 607.453 284.438C606.349 284.438 605.495 284.87 604.891 285.734C604.286 286.589 603.984 287.917 603.984 289.719ZM625.297 294.672C626.13 294.672 626.807 294.443 627.328 293.984C627.849 293.526 628.12 292.917 628.141 292.156H632.375C632.365 293.302 632.052 294.354 631.438 295.312C630.823 296.26 629.979 297 628.906 297.531C627.844 298.052 626.667 298.312 625.375 298.312C622.958 298.312 621.052 297.547 619.656 296.016C618.26 294.474 617.562 292.349 617.562 289.641V289.344C617.562 286.74 618.255 284.661 619.641 283.109C621.026 281.557 622.927 280.781 625.344 280.781C627.458 280.781 629.151 281.385 630.422 282.594C631.703 283.792 632.354 285.391 632.375 287.391H628.141C628.12 286.516 627.849 285.807 627.328 285.266C626.807 284.714 626.12 284.438 625.266 284.438C624.214 284.438 623.417 284.823 622.875 285.594C622.344 286.354 622.078 287.594 622.078 289.312V289.781C622.078 291.521 622.344 292.771 622.875 293.531C623.406 294.292 624.214 294.672 625.297 294.672ZM641.984 294.672C642.818 294.672 643.495 294.443 644.016 293.984C644.536 293.526 644.807 292.917 644.828 292.156H649.062C649.052 293.302 648.74 294.354 648.125 295.312C647.51 296.26 646.667 297 645.594 297.531C644.531 298.052 643.354 298.312 642.062 298.312C639.646 298.312 637.74 297.547 636.344 296.016C634.948 294.474 634.25 292.349 634.25 289.641V289.344C634.25 286.74 634.943 284.661 636.328 283.109C637.714 281.557 639.615 280.781 642.031 280.781C644.146 280.781 645.839 281.385 647.109 282.594C648.391 283.792 649.042 285.391 649.062 287.391H644.828C644.807 286.516 644.536 285.807 644.016 285.266C643.495 284.714 642.807 284.438 641.953 284.438C640.901 284.438 640.104 284.823 639.562 285.594C639.031 286.354 638.766 287.594 638.766 289.312V289.781C638.766 291.521 639.031 292.771 639.562 293.531C640.094 294.292 640.901 294.672 641.984 294.672ZM661.828 281.094H666.344V298H661.828V287.562L656.172 298H651.641V281.094H656.172V291.516L661.828 281.094ZM683.891 281.094V298H679.391V292.156H676.531L673.281 298H668.703L672.391 291.391C671.38 290.922 670.599 290.286 670.047 289.484C669.505 288.682 669.234 287.771 669.234 286.75C669.234 285.115 669.865 283.776 671.125 282.734C672.396 281.682 674.094 281.135 676.219 281.094H683.891ZM676.297 289H679.391V284.719H676.453C675.651 284.719 675 284.932 674.5 285.359C674 285.776 673.75 286.286 673.75 286.891C673.75 287.495 673.99 287.995 674.469 288.391C674.948 288.786 675.557 288.99 676.297 289Z" fill="white"/>
</g>
<g filter="url(#filter2_d)">
<rect x="477" y="344" width="310" height="74" rx="8" fill="#FFB800"/>
<path d="M585.453 382.703H582.75V392H578.062V369.25H582.75V378.359H584.891L590.453 369.25H596.172L589.156 380.016L596.906 392H591.312L585.453 382.703ZM608.219 392C608.01 391.594 607.859 391.089 607.766 390.484C606.672 391.703 605.25 392.312 603.5 392.312C601.844 392.312 600.469 391.833 599.375 390.875C598.292 389.917 597.75 388.708 597.75 387.25C597.75 385.458 598.411 384.083 599.734 383.125C601.068 382.167 602.99 381.682 605.5 381.672H607.578V380.703C607.578 379.922 607.375 379.297 606.969 378.828C606.573 378.359 605.943 378.125 605.078 378.125C604.318 378.125 603.719 378.307 603.281 378.672C602.854 379.036 602.641 379.536 602.641 380.172H598.125C598.125 379.193 598.427 378.286 599.031 377.453C599.635 376.62 600.49 375.969 601.594 375.5C602.698 375.021 603.938 374.781 605.312 374.781C607.396 374.781 609.047 375.307 610.266 376.359C611.495 377.401 612.109 378.87 612.109 380.766V388.094C612.12 389.698 612.344 390.911 612.781 391.734V392H608.219ZM604.484 388.859C605.151 388.859 605.766 388.714 606.328 388.422C606.891 388.12 607.307 387.719 607.578 387.219V384.312H605.891C603.63 384.312 602.427 385.094 602.281 386.656L602.266 386.922C602.266 387.484 602.464 387.948 602.859 388.312C603.255 388.677 603.797 388.859 604.484 388.859ZM630.234 392H625.703V385.5H620.094V392H615.578V375.094H620.094V381.875H625.703V375.094H630.234V392ZM643.531 392C643.323 391.594 643.172 391.089 643.078 390.484C641.984 391.703 640.562 392.312 638.812 392.312C637.156 392.312 635.781 391.833 634.688 390.875C633.604 389.917 633.062 388.708 633.062 387.25C633.062 385.458 633.724 384.083 635.047 383.125C636.38 382.167 638.302 381.682 640.812 381.672H642.891V380.703C642.891 379.922 642.688 379.297 642.281 378.828C641.885 378.359 641.255 378.125 640.391 378.125C639.63 378.125 639.031 378.307 638.594 378.672C638.167 379.036 637.953 379.536 637.953 380.172H633.438C633.438 379.193 633.74 378.286 634.344 377.453C634.948 376.62 635.802 375.969 636.906 375.5C638.01 375.021 639.25 374.781 640.625 374.781C642.708 374.781 644.359 375.307 645.578 376.359C646.807 377.401 647.422 378.87 647.422 380.766V388.094C647.432 389.698 647.656 390.911 648.094 391.734V392H643.531ZM639.797 388.859C640.464 388.859 641.078 388.714 641.641 388.422C642.203 388.12 642.62 387.719 642.891 387.219V384.312H641.203C638.943 384.312 637.74 385.094 637.594 386.656L637.578 386.922C637.578 387.484 637.776 387.948 638.172 388.312C638.568 388.677 639.109 388.859 639.797 388.859ZM651.125 388.359C652.146 387.276 652.839 386.203 653.203 385.141C653.568 384.078 653.771 382.573 653.812 380.625L653.938 375.094H666.375V388.359H668.812V397.078H664.297V392H654.281V397.078H649.672V388.359H651.125ZM656.453 388.359H661.875V378.828H658.359L658.328 380.859C658.234 383.964 657.609 386.464 656.453 388.359ZM680.906 392C680.698 391.594 680.547 391.089 680.453 390.484C679.359 391.703 677.938 392.312 676.188 392.312C674.531 392.312 673.156 391.833 672.062 390.875C670.979 389.917 670.438 388.708 670.438 387.25C670.438 385.458 671.099 384.083 672.422 383.125C673.755 382.167 675.677 381.682 678.188 381.672H680.266V380.703C680.266 379.922 680.062 379.297 679.656 378.828C679.26 378.359 678.63 378.125 677.766 378.125C677.005 378.125 676.406 378.307 675.969 378.672C675.542 379.036 675.328 379.536 675.328 380.172H670.812C670.812 379.193 671.115 378.286 671.719 377.453C672.323 376.62 673.177 375.969 674.281 375.5C675.385 375.021 676.625 374.781 678 374.781C680.083 374.781 681.734 375.307 682.953 376.359C684.182 377.401 684.797 378.87 684.797 380.766V388.094C684.807 389.698 685.031 390.911 685.469 391.734V392H680.906ZM677.172 388.859C677.839 388.859 678.453 388.714 679.016 388.422C679.578 388.12 679.995 387.719 680.266 387.219V384.312H678.578C676.318 384.312 675.115 385.094 674.969 386.656L674.953 386.922C674.953 387.484 675.151 387.948 675.547 388.312C675.943 388.677 676.484 388.859 677.172 388.859Z" fill="white"/>
</g>
<g filter="url(#filter3_d)">
<rect x="147" y="250" width="310" height="74" rx="8" fill="#48E445"/>
<path d="M284.891 290.422C284.714 292.87 283.807 294.797 282.172 296.203C280.547 297.609 278.401 298.312 275.734 298.312C272.818 298.312 270.521 297.333 268.844 295.375C267.177 293.406 266.344 290.708 266.344 287.281V285.891C266.344 283.703 266.729 281.776 267.5 280.109C268.271 278.443 269.37 277.167 270.797 276.281C272.234 275.385 273.901 274.938 275.797 274.938C278.422 274.938 280.536 275.641 282.141 277.047C283.745 278.453 284.672 280.427 284.922 282.969H280.234C280.12 281.5 279.708 280.438 279 279.781C278.302 279.115 277.234 278.781 275.797 278.781C274.234 278.781 273.062 279.344 272.281 280.469C271.51 281.583 271.115 283.318 271.094 285.672V287.391C271.094 289.849 271.464 291.646 272.203 292.781C272.953 293.917 274.13 294.484 275.734 294.484C277.182 294.484 278.26 294.156 278.969 293.5C279.688 292.833 280.099 291.807 280.203 290.422H284.891ZM292.641 275.25V294.234H298.953V275.25H303.656V294.234H309.906V275.25H314.594V298H287.938V275.25H292.641ZM331.781 293.312H323.562L322 298H317.016L325.484 275.25H329.828L338.344 298H333.359L331.781 293.312ZM324.828 289.516H330.516L327.656 281L324.828 289.516Z" fill="white"/>
</g>
<g filter="url(#filter4_d)">
<rect x="147" y="344" width="310" height="74" rx="8" fill="#FFB800"/>
<path d="M265.453 382.703H262.75V392H258.062V369.25H262.75V378.359H264.891L270.453 369.25H276.172L269.156 380.016L276.906 392H271.312L265.453 382.703ZM288.609 375.094H293.125V392H288.609V381.562L282.953 392H278.422V375.094H282.953V385.516L288.609 375.094ZM310.609 378.719H305.188V392H300.656V378.719H295.328V375.094H310.609V378.719ZM322.438 392C322.229 391.594 322.078 391.089 321.984 390.484C320.891 391.703 319.469 392.312 317.719 392.312C316.062 392.312 314.688 391.833 313.594 390.875C312.51 389.917 311.969 388.708 311.969 387.25C311.969 385.458 312.63 384.083 313.953 383.125C315.286 382.167 317.208 381.682 319.719 381.672H321.797V380.703C321.797 379.922 321.594 379.297 321.188 378.828C320.792 378.359 320.161 378.125 319.297 378.125C318.536 378.125 317.938 378.307 317.5 378.672C317.073 379.036 316.859 379.536 316.859 380.172H312.344C312.344 379.193 312.646 378.286 313.25 377.453C313.854 376.62 314.708 375.969 315.812 375.5C316.917 375.021 318.156 374.781 319.531 374.781C321.615 374.781 323.266 375.307 324.484 376.359C325.714 377.401 326.328 378.87 326.328 380.766V388.094C326.339 389.698 326.562 390.911 327 391.734V392H322.438ZM318.703 388.859C319.37 388.859 319.984 388.714 320.547 388.422C321.109 388.12 321.526 387.719 321.797 387.219V384.312H320.109C317.849 384.312 316.646 385.094 316.5 386.656L316.484 386.922C316.484 387.484 316.682 387.948 317.078 388.312C317.474 388.677 318.016 388.859 318.703 388.859ZM339.984 375.094H344.5V392H339.984V381.562L334.328 392H329.797V375.094H334.328V385.516L339.984 375.094ZM342.641 368.234C342.641 369.62 342.141 370.74 341.141 371.594C340.151 372.448 338.849 372.875 337.234 372.875C335.62 372.875 334.312 372.453 333.312 371.609C332.323 370.766 331.828 369.641 331.828 368.234H335.031C335.031 368.891 335.224 369.401 335.609 369.766C336.005 370.12 336.547 370.297 337.234 370.297C337.911 370.297 338.443 370.12 338.828 369.766C339.214 369.401 339.406 368.891 339.406 368.234H342.641Z" fill="white"/>
</g>
<circle cx="371.5" cy="285.5" r="15.5" fill="white" fill-opacity="0.56"/>
<g filter="url(#filter5_d)">
<path d="M389 260L391 261L376.928 280.121L389 260Z" fill="#F8FD00"/>
</g>
<g filter="url(#filter6_d)">
<path d="M357.531 316.37L355.482 315.476L368.538 295.647L357.531 316.37Z" fill="#F8FD00"/>
</g>
<g filter="url(#filter7_d)">
<path d="M342.782 303.833L341.454 302.033L362.679 291.395L342.782 303.833Z" fill="#F8FD00"/>
</g>
<g filter="url(#filter8_d)">
<path d="M363.937 258.345L366.09 257.74L368.527 281.356L363.937 258.345Z" fill="#F8FD00"/>
</g>
<g filter="url(#filter9_d)">
<path d="M339.518 277.14L339.966 274.949L362.078 283.593L339.518 277.14Z" fill="#F8FD00"/>
</g>
<path d="M371.773 282.011L521.056 281.985C523.215 282.228 524.279 283.004 524.866 283.592C526.954 285.68 526.954 289.069 524.866 291.157L497.17 318.853L496.634 319.389L497.338 319.671L551.854 341.516L551.854 341.516C553.599 342.213 554.444 344.194 553.742 345.933L553.742 345.934L543.595 371.302C543.42 371.738 543.165 372.128 542.845 372.448C542.544 372.749 542.183 372.995 541.78 373.176C540.948 373.525 540.017 373.533 539.182 373.198L539.182 373.197L482.879 350.647L482.242 350.392L482.195 351.077L479.532 389.797L479.53 389.815L479.53 389.833C479.535 390.865 478.987 392.187 477.99 393.184C475.902 395.272 472.512 395.272 470.424 393.184L368.397 291.157C365.456 288.216 367.293 282.548 371.773 282.011Z" fill="white" stroke="black"/>
<g filter="url(#filter10_d)">
<path d="M269.922 173.441C267.068 170.48 263.124 169 258.09 169C256.697 169 255.275 169.257 253.826 169.77C252.376 170.283 251.027 170.976 249.781 171.847C248.533 172.718 247.461 173.536 246.562 174.3C245.663 175.064 244.809 175.876 244 176.735C243.191 175.876 242.337 175.064 241.438 174.3C240.539 173.536 239.466 172.719 238.219 171.847C236.971 170.975 235.623 170.283 234.174 169.77C232.724 169.257 231.303 169 229.91 169C224.875 169 220.932 170.48 218.078 173.441C215.224 176.401 213.797 180.508 213.797 185.76C213.797 187.36 214.061 189.007 214.589 190.702C215.117 192.397 215.719 193.842 216.393 195.035C217.067 196.229 217.831 197.393 218.685 198.527C219.539 199.661 220.163 200.442 220.556 200.873C220.949 201.302 221.258 201.612 221.483 201.803L242.517 223.362C242.921 223.793 243.416 224.008 244 224.008C244.584 224.008 245.079 223.793 245.483 223.363L266.484 201.875C271.63 196.409 274.203 191.036 274.203 185.76C274.203 180.508 272.776 176.401 269.922 173.441Z" fill="#FF0000"/>
</g>
<g filter="url(#filter11_d)">
<path d="M342.719 173.441C339.865 170.48 335.921 169 330.887 169C329.494 169 328.072 169.257 326.623 169.77C325.173 170.283 323.824 170.976 322.578 171.847C321.331 172.718 320.258 173.536 319.359 174.3C318.46 175.064 317.606 175.876 316.797 176.735C315.988 175.876 315.134 175.064 314.235 174.3C313.336 173.536 312.263 172.719 311.016 171.847C309.769 170.975 308.42 170.283 306.971 169.77C305.521 169.257 304.1 169 302.707 169C297.673 169 293.729 170.48 290.875 173.441C288.021 176.401 286.594 180.508 286.594 185.76C286.594 187.36 286.858 189.007 287.386 190.702C287.914 192.397 288.516 193.842 289.19 195.035C289.864 196.229 290.628 197.393 291.482 198.527C292.336 199.661 292.96 200.442 293.353 200.873C293.746 201.302 294.055 201.612 294.28 201.803L315.314 223.362C315.718 223.793 316.213 224.008 316.797 224.008C317.381 224.008 317.876 223.793 318.28 223.363L339.281 201.875C344.427 196.409 347 191.036 347 185.76C347 180.508 345.573 176.401 342.719 173.441Z" fill="white"/>
</g>
<g filter="url(#filter12_d)">
<path d="M197.125 173.441C194.271 170.48 190.327 169 185.293 169C183.9 169 182.478 169.257 181.029 169.77C179.579 170.283 178.23 170.976 176.984 171.847C175.736 172.718 174.664 173.536 173.765 174.3C172.866 175.064 172.012 175.876 171.203 176.735C170.394 175.876 169.54 175.064 168.641 174.3C167.742 173.536 166.669 172.719 165.422 171.847C164.175 170.975 162.826 170.283 161.377 169.77C159.927 169.257 158.506 169 157.113 169C152.079 169 148.135 170.48 145.281 173.441C142.427 176.401 141 180.508 141 185.76C141 187.36 141.264 189.007 141.792 190.702C142.32 192.397 142.922 193.842 143.596 195.035C144.27 196.229 145.034 197.393 145.888 198.527C146.742 199.661 147.366 200.442 147.759 200.873C148.152 201.302 148.461 201.612 148.686 201.803L169.72 223.362C170.124 223.793 170.619 224.008 171.203 224.008C171.787 224.008 172.282 223.793 172.686 223.363L193.687 201.875C198.833 196.409 201.406 191.036 201.406 185.76C201.406 180.508 199.979 176.401 197.125 173.441Z" fill="#FF0000"/>
</g>
<g clip-path="url(#clip0)" filter="url(#filter13_d)">
<path d="M772.316 209.254H754.697V207.785C754.669 205.415 753.702 203.153 752.008 201.494C745.752 195.151 745.813 184.942 752.143 178.674C758.474 172.406 768.683 172.447 774.963 178.766C781.243 185.085 781.221 195.295 774.914 201.586C773.253 203.221 772.317 205.454 772.316 207.785V209.254Z" fill="#FFCB5A"/>
<path d="M756.165 212.19H770.848C771.659 212.19 772.316 212.848 772.316 213.659C772.316 214.47 771.659 215.127 770.848 215.127H756.165C755.354 215.127 754.697 214.47 754.697 213.659C754.697 212.848 755.354 212.19 756.165 212.19Z" fill="#62808C"/>
<path d="M759.102 218.063H767.911C768.723 218.063 769.38 218.721 769.38 219.532C769.38 220.343 768.723 221 767.911 221H759.102C758.291 221 757.633 220.343 757.633 219.532C757.633 218.721 758.291 218.063 759.102 218.063Z" fill="#62808C"/>
<path d="M753.228 188.698H756.165V191.634H753.228V188.698Z" fill="white"/>
<path d="M759.102 191.634H762.038V209.254H764.975V191.634H767.911V188.698H759.102V191.634Z" fill="white"/>
<path d="M770.848 188.698H773.785V191.634H770.848V188.698Z" fill="white"/>
</g>
<path d="M531.031 208V185.25H539C541.76 185.25 543.854 185.781 545.281 186.844C546.708 187.896 547.422 189.443 547.422 191.484C547.422 192.599 547.135 193.583 546.562 194.438C545.99 195.281 545.193 195.901 544.172 196.297C545.339 196.589 546.255 197.177 546.922 198.062C547.599 198.948 547.938 200.031 547.938 201.312C547.938 203.5 547.24 205.156 545.844 206.281C544.448 207.406 542.458 207.979 539.875 208H531.031ZM535.719 198.094V204.234H539.734C540.839 204.234 541.698 203.974 542.312 203.453C542.938 202.922 543.25 202.193 543.25 201.266C543.25 199.182 542.172 198.125 540.016 198.094H535.719ZM535.719 194.781H539.188C541.552 194.74 542.734 193.797 542.734 191.953C542.734 190.922 542.432 190.182 541.828 189.734C541.234 189.276 540.292 189.047 539 189.047H535.719V194.781ZM566.391 199.703C566.391 202.307 565.797 204.396 564.609 205.969C563.432 207.531 561.839 208.312 559.828 208.312C558.12 208.312 556.74 207.719 555.688 206.531V214.5H551.172V191.094H555.359L555.516 192.75C556.609 191.438 558.036 190.781 559.797 190.781C561.88 190.781 563.5 191.552 564.656 193.094C565.812 194.635 566.391 196.76 566.391 199.469V199.703ZM561.875 199.375C561.875 197.802 561.594 196.589 561.031 195.734C560.479 194.88 559.672 194.453 558.609 194.453C557.193 194.453 556.219 194.995 555.688 196.078V203C556.24 204.115 557.224 204.672 558.641 204.672C560.797 204.672 561.875 202.906 561.875 199.375ZM576.984 208.312C574.505 208.312 572.484 207.552 570.922 206.031C569.37 204.51 568.594 202.484 568.594 199.953V199.516C568.594 197.818 568.922 196.302 569.578 194.969C570.234 193.625 571.161 192.594 572.359 191.875C573.568 191.146 574.943 190.781 576.484 190.781C578.797 190.781 580.615 191.51 581.938 192.969C583.271 194.427 583.938 196.495 583.938 199.172V201.016H573.172C573.318 202.12 573.755 203.005 574.484 203.672C575.224 204.339 576.156 204.672 577.281 204.672C579.021 204.672 580.38 204.042 581.359 202.781L583.578 205.266C582.901 206.224 581.984 206.974 580.828 207.516C579.672 208.047 578.391 208.312 576.984 208.312ZM576.469 194.438C575.573 194.438 574.844 194.74 574.281 195.344C573.729 195.948 573.375 196.812 573.219 197.938H579.5V197.578C579.479 196.578 579.208 195.807 578.688 195.266C578.167 194.714 577.427 194.438 576.469 194.438ZM596.812 202.672L601.234 191.094H606.891V208H602.375V197.625L598.328 208H595.297L591.328 197.797V208H586.812V191.094H592.422L596.812 202.672ZM624.922 191.094V208H620.422V202.156H617.562L614.312 208H609.734L613.422 201.391C612.411 200.922 611.63 200.286 611.078 199.484C610.536 198.682 610.266 197.771 610.266 196.75C610.266 195.115 610.896 193.776 612.156 192.734C613.427 191.682 615.125 191.135 617.25 191.094H624.922ZM617.328 199H620.422V194.719H617.484C616.682 194.719 616.031 194.932 615.531 195.359C615.031 195.776 614.781 196.286 614.781 196.891C614.781 197.495 615.021 197.995 615.5 198.391C615.979 198.786 616.589 198.99 617.328 199ZM628.953 205.781C628.953 205.062 629.193 204.479 629.672 204.031C630.161 203.583 630.771 203.359 631.5 203.359C632.24 203.359 632.849 203.583 633.328 204.031C633.818 204.479 634.062 205.062 634.062 205.781C634.062 206.49 633.823 207.068 633.344 207.516C632.865 207.953 632.25 208.172 631.5 208.172C630.76 208.172 630.151 207.953 629.672 207.516C629.193 207.068 628.953 206.49 628.953 205.781ZM628.953 192.984C628.953 192.266 629.193 191.682 629.672 191.234C630.161 190.786 630.771 190.562 631.5 190.562C632.24 190.562 632.849 190.786 633.328 191.234C633.818 191.682 634.062 192.266 634.062 192.984C634.062 193.693 633.823 194.271 633.344 194.719C632.865 195.156 632.25 195.375 631.5 195.375C630.76 195.375 630.151 195.156 629.672 194.719C629.193 194.271 628.953 193.693 628.953 192.984ZM660.859 198.594C660.859 201.74 660.208 204.146 658.906 205.812C657.604 207.479 655.698 208.312 653.188 208.312C650.708 208.312 648.812 207.495 647.5 205.859C646.188 204.224 645.516 201.88 645.484 198.828V194.641C645.484 191.464 646.141 189.052 647.453 187.406C648.776 185.76 650.677 184.938 653.156 184.938C655.635 184.938 657.531 185.755 658.844 187.391C660.156 189.016 660.828 191.354 660.859 194.406V198.594ZM656.344 194C656.344 192.115 656.083 190.745 655.562 189.891C655.052 189.026 654.25 188.594 653.156 188.594C652.094 188.594 651.307 189.005 650.797 189.828C650.297 190.641 650.031 191.917 650 193.656V199.188C650 201.042 650.25 202.422 650.75 203.328C651.26 204.224 652.073 204.672 653.188 204.672C654.292 204.672 655.089 204.24 655.578 203.375C656.068 202.51 656.323 201.188 656.344 199.406V194ZM679.234 198.594C679.234 201.74 678.583 204.146 677.281 205.812C675.979 207.479 674.073 208.312 671.562 208.312C669.083 208.312 667.188 207.495 665.875 205.859C664.562 204.224 663.891 201.88 663.859 198.828V194.641C663.859 191.464 664.516 189.052 665.828 187.406C667.151 185.76 669.052 184.938 671.531 184.938C674.01 184.938 675.906 185.755 677.219 187.391C678.531 189.016 679.203 191.354 679.234 194.406V198.594ZM674.719 194C674.719 192.115 674.458 190.745 673.938 189.891C673.427 189.026 672.625 188.594 671.531 188.594C670.469 188.594 669.682 189.005 669.172 189.828C668.672 190.641 668.406 191.917 668.375 193.656V199.188C668.375 201.042 668.625 202.422 669.125 203.328C669.635 204.224 670.448 204.672 671.562 204.672C672.667 204.672 673.464 204.24 673.953 203.375C674.443 202.51 674.698 201.188 674.719 199.406V194ZM682.703 205.781C682.703 205.062 682.943 204.479 683.422 204.031C683.911 203.583 684.521 203.359 685.25 203.359C685.99 203.359 686.599 203.583 687.078 204.031C687.568 204.479 687.812 205.062 687.812 205.781C687.812 206.49 687.573 207.068 687.094 207.516C686.615 207.953 686 208.172 685.25 208.172C684.51 208.172 683.901 207.953 683.422 207.516C682.943 207.068 682.703 206.49 682.703 205.781ZM682.703 192.984C682.703 192.266 682.943 191.682 683.422 191.234C683.911 190.786 684.521 190.562 685.25 190.562C685.99 190.562 686.599 190.786 687.078 191.234C687.568 191.682 687.812 192.266 687.812 192.984C687.812 193.693 687.573 194.271 687.094 194.719C686.615 195.156 686 195.375 685.25 195.375C684.51 195.375 683.901 195.156 683.422 194.719C682.943 194.271 682.703 193.693 682.703 192.984ZM712.656 199.438H715.234V203.078H712.656V208H708.141V203.078H698.812L698.609 200.234L708.094 185.25H712.656V199.438ZM703.109 199.438H708.141V191.406L707.844 191.922L703.109 199.438ZM718.344 196.812L719.656 185.25H732.406V189.016H723.359L722.797 193.906C723.87 193.333 725.01 193.047 726.219 193.047C728.385 193.047 730.083 193.719 731.312 195.062C732.542 196.406 733.156 198.286 733.156 200.703C733.156 202.172 732.844 203.49 732.219 204.656C731.604 205.812 730.719 206.714 729.562 207.359C728.406 207.995 727.042 208.312 725.469 208.312C724.094 208.312 722.818 208.036 721.641 207.484C720.464 206.922 719.531 206.135 718.844 205.125C718.167 204.115 717.807 202.964 717.766 201.672H722.234C722.328 202.62 722.656 203.359 723.219 203.891C723.792 204.411 724.536 204.672 725.453 204.672C726.474 204.672 727.26 204.307 727.812 203.578C728.365 202.839 728.641 201.797 728.641 200.453C728.641 199.161 728.323 198.172 727.688 197.484C727.052 196.797 726.151 196.453 724.984 196.453C723.911 196.453 723.042 196.734 722.375 197.297L721.938 197.703L718.344 196.812Z" fill="white"/>
</g>
<defs>
<filter id="filter0_dd" x="0" y="0" width="1008" height="508" filterUnits="userSpaceOnUse" color-interpolation-filters="sRGB">
<feFlood flood-opacity="0" result="BackgroundImageFix"/>
<feColorMatrix in="SourceAlpha" type="matrix" values="0 0 0 0 0 0 0 0 0 0 0 0 0 0 0 0 0 0 127 0"/>
<feOffset dy="4"/>
<feGaussianBlur stdDeviation="2"/>
<feColorMatrix type="matrix" values="0 0 0 0 0 0 0 0 0 0 0 0 0 0 0 0 0 0 0.25 0"/>
<feBlend mode="normal" in2="BackgroundImageFix" result="effect1_dropShadow"/>
<feColorMatrix in="SourceAlpha" type="matrix" values="0 0 0 0 0 0 0 0 0 0 0 0 0 0 0 0 0 0 127 0"/>
<feOffset dy="4"/>
<feGaussianBlur stdDeviation="2"/>
<feColorMatrix type="matrix" values="0 0 0 0 0 0 0 0 0 0 0 0 0 0 0 0 0 0 0.25 0"/>
<feBlend mode="normal" in2="effect1_dropShadow" result="effect2_dropShadow"/>
<feBlend mode="normal" in="SourceGraphic" in2="effect2_dropShadow" result="shape"/>
</filter>
<filter id="filter1_d" x="473" y="250" width="318" height="82" filterUnits="userSpaceOnUse" color-interpolation-filters="sRGB">
<feFlood flood-opacity="0" result="BackgroundImageFix"/>
<feColorMatrix in="SourceAlpha" type="matrix" values="0 0 0 0 0 0 0 0 0 0 0 0 0 0 0 0 0 0 127 0"/>
<feOffset dy="4"/>
<feGaussianBlur stdDeviation="2"/>
<feColorMatrix type="matrix" values="0 0 0 0 0 0 0 0 0 0 0 0 0 0 0 0 0 0 0.25 0"/>
<feBlend mode="normal" in2="BackgroundImageFix" result="effect1_dropShadow"/>
<feBlend mode="normal" in="SourceGraphic" in2="effect1_dropShadow" result="shape"/>
</filter>
<filter id="filter2_d" x="473" y="344" width="318" height="82" filterUnits="userSpaceOnUse" color-interpolation-filters="sRGB">
<feFlood flood-opacity="0" result="BackgroundImageFix"/>
<feColorMatrix in="SourceAlpha" type="matrix" values="0 0 0 0 0 0 0 0 0 0 0 0 0 0 0 0 0 0 127 0"/>
<feOffset dy="4"/>
<feGaussianBlur stdDeviation="2"/>
<feColorMatrix type="matrix" values="0 0 0 0 0 0 0 0 0 0 0 0 0 0 0 0 0 0 0.25 0"/>
<feBlend mode="normal" in2="BackgroundImageFix" result="effect1_dropShadow"/>
<feBlend mode="normal" in="SourceGraphic" in2="effect1_dropShadow" result="shape"/>
</filter>
<filter id="filter3_d" x="143" y="250" width="318" height="82" filterUnits="userSpaceOnUse" color-interpolation-filters="sRGB">
<feFlood flood-opacity="0" result="BackgroundImageFix"/>
<feColorMatrix in="SourceAlpha" type="matrix" values="0 0 0 0 0 0 0 0 0 0 0 0 0 0 0 0 0 0 127 0"/>
<feOffset dy="4"/>
<feGaussianBlur stdDeviation="2"/>
<feColorMatrix type="matrix" values="0 0 0 0 0 0 0 0 0 0 0 0 0 0 0 0 0 0 0.25 0"/>
<feBlend mode="normal" in2="BackgroundImageFix" result="effect1_dropShadow"/>
<feBlend mode="normal" in="SourceGraphic" in2="effect1_dropShadow" result="shape"/>
</filter>
<filter id="filter4_d" x="143" y="344" width="318" height="82" filterUnits="userSpaceOnUse" color-interpolation-filters="sRGB">
<feFlood flood-opacity="0" result="BackgroundImageFix"/>
<feColorMatrix in="SourceAlpha" type="matrix" values="0 0 0 0 0 0 0 0 0 0 0 0 0 0 0 0 0 0 127 0"/>
<feOffset dy="4"/>
<feGaussianBlur stdDeviation="2"/>
<feColorMatrix type="matrix" values="0 0 0 0 0 0 0 0 0 0 0 0 0 0 0 0 0 0 0.25 0"/>
<feBlend mode="normal" in2="BackgroundImageFix" result="effect1_dropShadow"/>
<feBlend mode="normal" in="SourceGraphic" in2="effect1_dropShadow" result="shape"/>
</filter>
<filter id="filter5_d" x="372.928" y="260" width="22.0723" height="28.1213" filterUnits="userSpaceOnUse" color-interpolation-filters="sRGB">
<feFlood flood-opacity="0" result="BackgroundImageFix"/>
<feColorMatrix in="SourceAlpha" type="matrix" values="0 0 0 0 0 0 0 0 0 0 0 0 0 0 0 0 0 0 127 0"/>
<feOffset dy="4"/>
<feGaussianBlur stdDeviation="2"/>
<feColorMatrix type="matrix" values="0 0 0 0 0 0 0 0 0 0 0 0 0 0 0 0 0 0 0.25 0"/>
<feBlend mode="normal" in2="BackgroundImageFix" result="effect1_dropShadow"/>
<feBlend mode="normal" in="SourceGraphic" in2="effect1_dropShadow" result="shape"/>
</filter>
<filter id="filter6_d" x="350.485" y="295.647" width="23.1024" height="28.8278" filterUnits="userSpaceOnUse" color-interpolation-filters="sRGB">
<feFlood flood-opacity="0" result="BackgroundImageFix"/>
<feColorMatrix in="SourceAlpha" type="matrix" values="0 0 0 0 0 0 0 0 0 0 0 0 0 0 0 0 0 0 127 0"/>
<feOffset dy="4"/>
<feGaussianBlur stdDeviation="2"/>
<feColorMatrix type="matrix" values="0 0 0 0 0 0 0 0 0 0 0 0 0 0 0 0 0 0 0.25 0"/>
<feBlend mode="normal" in2="BackgroundImageFix" result="effect1_dropShadow"/>
<feBlend mode="normal" in="SourceGraphic" in2="effect1_dropShadow" result="shape"/>
</filter>
<filter id="filter7_d" x="337" y="285" width="29.6787" height="32.3185" filterUnits="userSpaceOnUse" color-interpolation-filters="sRGB">
<feFlood flood-opacity="0" result="BackgroundImageFix"/>
<feColorMatrix in="SourceAlpha" type="matrix" values="0 0 0 0 0 0 0 0 0 0 0 0 0 0 0 0 0 0 127 0"/>
<feOffset dy="4"/>
<feGaussianBlur stdDeviation="2"/>
<feColorMatrix type="matrix" values="0 0 0 0 0 0 0 0 0 0 0 0 0 0 0 0 0 0 0.25 0"/>
<feBlend mode="normal" in2="BackgroundImageFix" result="effect1_dropShadow"/>
<feBlend mode="normal" in="SourceGraphic" in2="effect1_dropShadow" result="shape"/>
</filter>
<filter id="filter8_d" x="351" y="257" width="31.9448" height="32.3563" filterUnits="userSpaceOnUse" color-interpolation-filters="sRGB">
<feFlood flood-opacity="0" result="BackgroundImageFix"/>
<feColorMatrix in="SourceAlpha" type="matrix" values="0 0 0 0 0 0 0 0 0 0 0 0 0 0 0 0 0 0 127 0"/>
<feOffset dy="4"/>
<feGaussianBlur stdDeviation="2"/>
<feColorMatrix type="matrix" values="0 0 0 0 0 0 0 0 0 0 0 0 0 0 0 0 0 0 0.25 0"/>
<feBlend mode="normal" in2="BackgroundImageFix" result="effect1_dropShadow"/>
<feBlend mode="normal" in="SourceGraphic" in2="effect1_dropShadow" result="shape"/>
</filter>
<filter id="filter9_d" x="335" y="270" width="31.0779" height="26.8006" filterUnits="userSpaceOnUse" color-interpolation-filters="sRGB">
<feFlood flood-opacity="0" result="BackgroundImageFix"/>
<feColorMatrix in="SourceAlpha" type="matrix" values="0 0 0 0 0 0 0 0 0 0 0 0 0 0 0 0 0 0 127 0"/>
<feOffset dy="4"/>
<feGaussianBlur stdDeviation="2"/>
<feColorMatrix type="matrix" values="0 0 0 0 0 0 0 0 0 0 0 0 0 0 0 0 0 0 0.25 0"/>
<feBlend mode="normal" in2="BackgroundImageFix" result="effect1_dropShadow"/>
<feBlend mode="normal" in="SourceGraphic" in2="effect1_dropShadow" result="shape"/>
</filter>
<filter id="filter10_d" x="209.797" y="166" width="68.406" height="63.0077" filterUnits="userSpaceOnUse" color-interpolation-filters="sRGB">
<feFlood flood-opacity="0" result="BackgroundImageFix"/>
<feColorMatrix in="SourceAlpha" type="matrix" values="0 0 0 0 0 0 0 0 0 0 0 0 0 0 0 0 0 0 127 0"/>
<feOffset dy="1"/>
<feGaussianBlur stdDeviation="2"/>
<feColorMatrix type="matrix" values="0 0 0 0 0 0 0 0 0 0 0 0 0 0 0 0 0 0 0.25 0"/>
<feBlend mode="normal" in2="BackgroundImageFix" result="effect1_dropShadow"/>
<feBlend mode="normal" in="SourceGraphic" in2="effect1_dropShadow" result="shape"/>
</filter>
<filter id="filter11_d" x="282.594" y="166" width="68.406" height="63.0077" filterUnits="userSpaceOnUse" color-interpolation-filters="sRGB">
<feFlood flood-opacity="0" result="BackgroundImageFix"/>
<feColorMatrix in="SourceAlpha" type="matrix" values="0 0 0 0 0 0 0 0 0 0 0 0 0 0 0 0 0 0 127 0"/>
<feOffset dy="1"/>
<feGaussianBlur stdDeviation="2"/>
<feColorMatrix type="matrix" values="0 0 0 0 0 0 0 0 0 0 0 0 0 0 0 0 0 0 0.25 0"/>
<feBlend mode="normal" in2="BackgroundImageFix" result="effect1_dropShadow"/>
<feBlend mode="normal" in="SourceGraphic" in2="effect1_dropShadow" result="shape"/>
</filter>
<filter id="filter12_d" x="137" y="166" width="68.406" height="63.0077" filterUnits="userSpaceOnUse" color-interpolation-filters="sRGB">
<feFlood flood-opacity="0" result="BackgroundImageFix"/>
<feColorMatrix in="SourceAlpha" type="matrix" values="0 0 0 0 0 0 0 0 0 0 0 0 0 0 0 0 0 0 127 0"/>
<feOffset dy="1"/>
<feGaussianBlur stdDeviation="2"/>
<feColorMatrix type="matrix" values="0 0 0 0 0 0 0 0 0 0 0 0 0 0 0 0 0 0 0.25 0"/>
<feBlend mode="normal" in2="BackgroundImageFix" result="effect1_dropShadow"/>
<feBlend mode="normal" in="SourceGraphic" in2="effect1_dropShadow" result="shape"/>
</filter>
<filter id="filter13_d" x="740" y="174" width="49" height="49" filterUnits="userSpaceOnUse" color-interpolation-filters="sRGB">
<feFlood flood-opacity="0" result="BackgroundImageFix"/>
<feColorMatrix in="SourceAlpha" type="matrix" values="0 0 0 0 0 0 0 0 0 0 0 0 0 0 0 0 0 0 127 0"/>
<feOffset dx="2" dy="2"/>
<feColorMatrix type="matrix" values="0 0 0 0 0 0 0 0 0 0 0 0 0 0 0 0 0 0 0.25 0"/>
<feBlend mode="normal" in2="BackgroundImageFix" result="effect1_dropShadow"/>
<feBlend mode="normal" in="SourceGraphic" in2="effect1_dropShadow" result="shape"/>
</filter>
<clipPath id="clip0">
<rect width="47" height="47" fill="white" transform="translate(740 174)"/>
</clipPath>
</defs>
</svg>
